{
  "version": "1.1.6",
  "modules": [
    {
      "id": 1,
      "plugin": "Core",
      "version": "1.1.6",
      "model": "AudioInterface",
      "params": [],
      "data": {
        "audio": {
          "driver": 8,
          "deviceName": "Default Device",
          "offset": 0,
          "maxChannels": 8,
          "sampleRate": 44100,
          "blockSize": 256
        }
      },
      "pos": [
        245,
        3
      ]
    },
    {
      "id": 5,
      "plugin": "Core",
      "version": "1.1.6",
      "model": "MIDIToCVInterface",
      "params": [],
      "rightModuleId": 247,
      "data": {
        "channels": 1,
        "polyMode": 0,
        "clockDivision": 24,
        "lastPitch": 8192,
        "lastMod": 0,
        "midi": {
          "driver": 4,
          "deviceName": "DESKTOP-O66NHEI 0",
          "channel": 3
        }
      },
      "pos": [
        211,
        4
      ]
    },
    {
      "id": 149,
      "plugin": "NYSTHI",
      "version": "1.0.13",
      "model": "mix16",
      "params": [
        {
          "id": 0,
          "value": 0.0
        },
        {
          "id": 1,
          "value": 0.0
        },
        {
          "id": 2,
          "value": 0.0
        },
        {
          "id": 3,
          "value": 0.0
        },
        {
          "id": 4,
          "value": 0.0
        },
        {
          "id": 5,
          "value": 0.0
        },
        {
          "id": 6,
          "value": 0.0
        },
        {
          "id": 7,
          "value": 0.0
        },
        {
          "id": 8,
          "value": 0.0
        },
        {
          "id": 9,
          "value": 0.0
        },
        {
          "id": 10,
          "value": 0.0
        },
        {
          "id": 11,
          "value": 0.0
        },
        {
          "id": 12,
          "value": 0.0
        },
        {
          "id": 13,
          "value": 0.0
        },
        {
          "id": 14,
          "value": 0.0
        },
        {
          "id": 15,
          "value": 0.0
        },
        {
          "id": 16,
          "value": 0.0
        },
        {
          "id": 17,
          "value": 0.0
        },
        {
          "id": 18,
          "value": 0.0
        },
        {
          "id": 19,
          "value": 0.0
        },
        {
          "id": 20,
          "value": 0.0
        },
        {
          "id": 21,
          "value": 0.0
        },
        {
          "id": 22,
          "value": 0.0
        },
        {
          "id": 23,
          "value": 0.0
        },
        {
          "id": 24,
          "value": 0.0
        },
        {
          "id": 25,
          "value": 0.0
        },
        {
          "id": 26,
          "value": 0.0
        },
        {
          "id": 27,
          "value": 0.0
        },
        {
          "id": 28,
          "value": 0.0
        },
        {
          "id": 29,
          "value": 0.0
        },
        {
          "id": 30,
          "value": 0.0
        },
        {
          "id": 31,
          "value": 0.0
        },
        {
          "id": 32,
          "value": 0.0
        },
        {
          "id": 33,
          "value": 0.0
        },
        {
          "id": 34,
          "value": 0.0
        },
        {
          "id": 35,
          "value": 0.0
        },
        {
          "id": 36,
          "value": 0.0
        },
        {
          "id": 37,
          "value": 0.0
        },
        {
          "id": 38,
          "value": 0.0
        },
        {
          "id": 39,
          "value": 0.0
        },
        {
          "id": 40,
          "value": 0.0
        },
        {
          "id": 41,
          "value": 0.0
        },
        {
          "id": 42,
          "value": 0.0
        },
        {
          "id": 43,
          "value": 0.0
        },
        {
          "id": 44,
          "value": 0.0
        },
        {
          "id": 45,
          "value": 0.0
        },
        {
          "id": 46,
          "value": 0.0
        },
        {
          "id": 47,
          "value": 0.0
        },
        {
          "id": 48,
          "value": 0.0
        },
        {
          "id": 49,
          "value": 0.0
        },
        {
          "id": 50,
          "value": 0.0
        },
        {
          "id": 51,
          "value": 0.0
        },
        {
          "id": 52,
          "value": 0.0
        },
        {
          "id": 53,
          "value": 0.0
        },
        {
          "id": 54,
          "value": 0.0
        },
        {
          "id": 55,
          "value": 0.0
        },
        {
          "id": 56,
          "value": 0.0
        },
        {
          "id": 57,
          "value": 0.0
        },
        {
          "id": 58,
          "value": 0.0
        },
        {
          "id": 59,
          "value": 0.0
        },
        {
          "id": 60,
          "value": 0.0
        },
        {
          "id": 61,
          "value": 0.0
        },
        {
          "id": 62,
          "value": 0.0
        },
        {
          "id": 63,
          "value": 0.0
        },
        {
          "id": 64,
          "value": 0.0
        },
        {
          "id": 65,
          "value": 0.0
        },
        {
          "id": 66,
          "value": 0.0
        },
        {
          "id": 67,
          "value": 0.0
        },
        {
          "id": 68,
          "value": 0.0
        },
        {
          "id": 69,
          "value": 0.0
        },
        {
          "id": 70,
          "value": 0.0
        },
        {
          "id": 71,
          "value": 0.0
        }
      ],
      "data": {
        "m_channels": [
          1.0,
          0.5,
          false,
          false,
          0.329957485,
          0.5,
          false,
          false,
          1.0,
          0.5,
          false,
          false,
          0.285465509,
          0.5,
          true,
          false,
          0.888911843,
          0.5,
          false,
          false,
          1.0,
          0.5,
          false,
          false,
          1.0,
          0.5,
          false,
          false,
          1.0,
          0.5,
          false,
          false,
          1.0,
          0.5,
          false,
          false,
          1.0,
          0.5,
          false,
          false,
          1.0,
          0.5,
          false,
          false,
          1.0,
          0.5,
          false,
          false,
          1.0,
          0.5,
          false,
          false,
          1.0,
          0.5,
          false,
          false,
          1.0,
          0.5,
          false,
          false,
          1.0,
          0.5,
          false,
          false
        ],
        "m_master_volume": 1.18663156,
        "m_master_mute_trig": false,
        "m_low_power": false,
        "m_cvcompatible": false,
        "m_show_post_out": false,
        "m_post_outputs_unaffected_by_solo_mode": false,
        "m_attenuation": 1.0,
        "m_limiting_mode": 0,
        "m_poly_out": 16
      },
      "pos": [
        182,
        3
      ]
    },
    {
      "id": 157,
      "plugin": "NYSTHI",
      "version": "1.0.13",
      "model": "ScaleOffset",
      "params": [
        {
          "id": 0,
          "value": 6.03998756
        },
        {
          "id": 1,
          "value": 1.0
        },
        {
          "id": 2,
          "value": 10.0
        },
        {
          "id": 3,
          "value": 1.0
        }
      ],
      "data": {
        "m_snapped": false
      },
      "pos": [
        26,
        3
      ]
    },
    {
      "id": 158,
      "plugin": "Fundamental",
      "version": "1.4.0",
      "model": "Scope",
      "params": [
        {
          "id": 0,
          "value": 0.0
        },
        {
          "id": 1,
          "value": 0.0
        },
        {
          "id": 2,
          "value": 0.0
        },
        {
          "id": 3,
          "value": 0.0
        },
        {
          "id": 4,
          "value": 6.0
        },
        {
          "id": 5,
          "value": 0.0
        },
        {
          "id": 6,
          "value": 0.0
        },
        {
          "id": 7,
          "value": 0.0
        }
      ],
      "leftModuleId": 170,
      "rightModuleId": 198,
      "data": {
        "lissajous": 0,
        "external": 0
      },
      "pos": [
        30,
        2
      ]
    },
    {
      "id": 170,
      "plugin": "Fundamental",
      "version": "1.4.0",
      "model": "Scope",
      "params": [
        {
          "id": 0,
          "value": 0.0
        },
        {
          "id": 1,
          "value": 0.0
        },
        {
          "id": 2,
          "value": 0.0
        },
        {
          "id": 3,
          "value": 0.0
        },
        {
          "id": 4,
          "value": 6.0
        },
        {
          "id": 5,
          "value": 0.0
        },
        {
          "id": 6,
          "value": 0.0
        },
        {
          "id": 7,
          "value": 0.0
        }
      ],
      "rightModuleId": 158,
      "data": {
        "lissajous": 0,
        "external": 0
      },
      "pos": [
        17,
        2
      ]
    },
    {
      "id": 174,
      "plugin": "NYSTHI",
      "version": "1.0.13",
      "model": "DualSignalDelayer",
      "params": [
        {
          "id": 0,
          "value": 0.00449997559
        },
        {
          "id": 1,
          "value": 0.5
        },
        {
          "id": 2,
          "value": 0.0
        },
        {
          "id": 3,
          "value": 0.0
        },
        {
          "id": 4,
          "value": 0.0
        },
        {
          "id": 5,
          "value": 0.0
        },
        {
          "id": 6,
          "value": 0.0
        },
        {
          "id": 7,
          "value": 0.0
        }
      ],
      "rightModuleId": 184,
      "pos": [
        38,
        3
      ]
    },
    {
      "id": 184,
      "plugin": "Bogaudio",
      "version": "1.1.33",
      "model": "Bogaudio-Sums",
      "params": [],
      "leftModuleId": 174,
      "rightModuleId": 185,
      "data": {
        "disableOutputLimit": false
      },
      "pos": [
        40,
        3
      ]
    },
    {
      "id": 185,
      "plugin": "Bogaudio",
      "version": "1.1.33",
      "model": "Bogaudio-Sums",
      "params": [],
      "leftModuleId": 184,
      "data": {
        "disableOutputLimit": false
      },
      "pos": [
        43,
        3
      ]
    },
    {
      "id": 198,
      "plugin": "Fundamental",
      "version": "1.4.0",
      "model": "Mutes",
      "params": [
        {
          "id": 0,
          "value": 0.0
        },
        {
          "id": 1,
          "value": 0.0
        },
        {
          "id": 2,
          "value": 0.0
        },
        {
          "id": 3,
          "value": 0.0
        },
        {
          "id": 4,
          "value": 0.0
        },
        {
          "id": 5,
          "value": 0.0
        },
        {
          "id": 6,
          "value": 0.0
        },
        {
          "id": 7,
          "value": 0.0
        },
        {
          "id": 8,
          "value": 0.0
        },
        {
          "id": 9,
          "value": 0.0
        }
      ],
      "leftModuleId": 158,
      "rightModuleId": 199,
      "data": {
        "states": [
          true,
          true,
          true,
          true,
          true,
          true,
          true,
          true,
          true,
          true
        ]
      },
      "pos": [
        43,
        2
      ]
    },
    {
      "id": 199,
      "plugin": "Core",
      "version": "1.1.6",
      "model": "Notes",
      "params": [],
      "leftModuleId": 198,
      "text": " 1 the orginal midi input\n \n\n2 the rescaled input\n\n\n 3  dirac when input changes\n\n4 negatif oof the midi\n\n5 inactive if 0 persones\n   ",
      "pos": [
        51,
        2
      ]
    },
    {
      "id": 201,
      "plugin": "ImpromptuModular",
      "version": "1.1.8",
      "model": "Clocked",
      "params": [
        {
          "id": 0,
          "value": 45.0
        },
        {
          "id": 1,
          "value": 0.0
        },
        {
          "id": 2,
          "value": 4.0
        },
        {
          "id": 3,
          "value": -5.0
        },
        {
          "id": 4,
          "value": 0.0
        },
        {
          "id": 5,
          "value": 0.0
        },
        {
          "id": 6,
          "value": 0.0
        },
        {
          "id": 7,
          "value": 0.0
        },
        {
          "id": 8,
          "value": 0.5
        },
        {
          "id": 9,
          "value": 0.5
        },
        {
          "id": 10,
          "value": 0.5
        },
        {
          "id": 11,
          "value": 0.5
        },
        {
          "id": 12,
          "value": 0.0
        },
        {
          "id": 13,
          "value": 0.0
        },
        {
          "id": 14,
          "value": 0.0
        },
        {
          "id": 15,
          "value": 0.0
        },
        {
          "id": 16,
          "value": 0.0
        },
        {
          "id": 17,
          "value": 0.0
        },
        {
          "id": 18,
          "value": 0.0
        },
        {
          "id": 19,
          "value": 0.0
        }
      ],
      "data": {
        "panelTheme": 0,
        "running": true,
        "displayDelayNoteMode": true,
        "bpmDetectionMode": false,
        "resetOnStartStop": 0,
        "ppqn": 4,
        "resetClockOutputsHigh": true,
        "momentaryRunInput": true,
        "clockMaster": false
      },
      "pos": [
        44,
        1
      ]
    },
    {
      "id": 204,
      "plugin": "NYSTHI",
      "version": "1.0.13",
      "model": "ScaleOffset",
      "params": [
        {
          "id": 0,
          "value": 10.0
        },
        {
          "id": 1,
          "value": 2.0
        },
        {
          "id": 2,
          "value": -20.2000065
        },
        {
          "id": 3,
          "value": 2.0
        }
      ],
      "data": {
        "m_snapped": false
      },
      "pos": [
        26,
        1
      ]
    },
    {
      "id": 205,
      "plugin": "Fundamental",
      "version": "1.4.0",
      "model": "VCO",
      "params": [
        {
          "id": 0,
          "value": 1.0
        },
        {
          "id": 1,
          "value": 1.0
        },
        {
          "id": 2,
          "value": 10.2443419
        },
        {
          "id": 3,
          "value": -0.185999781
        },
        {
          "id": 4,
          "value": 0.327000111
        },
        {
          "id": 5,
          "value": 0.5
        },
        {
          "id": 6,
          "value": 0.0
        }
      ],
      "leftModuleId": 207,
      "rightModuleId": 210,
      "pos": [
        118,
        1
      ]
    },
    {
      "id": 206,
      "plugin": "AudibleInstruments",
      "version": "1.3.1",
      "model": "Kinks",
      "params": [],
      "leftModuleId": 217,
      "rightModuleId": 208,
      "pos": [
        93,
        1
      ]
    },
    {
      "id": 207,
      "plugin": "Fundamental",
      "version": "1.4.0",
      "model": "Quantizer",
      "params": [],
      "leftModuleId": 209,
      "rightModuleId": 205,
      "data": {
        "enabledNotes": [
          true,
          false,
          true,
          false,
          true,
          false,
          false,
          false,
          false,
          true,
          true,
          false
        ]
      },
      "pos": [
        115,
        1
      ]
    },
    {
      "id": 208,
      "plugin": "Befaco",
      "version": "1.0.1",
      "model": "DualAtenuverter",
      "params": [
        {
          "id": 0,
          "value": 0.165000036
        },
        {
          "id": 1,
          "value": 1.86000013
        },
        {
          "id": 2,
          "value": 0.0
        },
        {
          "id": 3,
          "value": 0.0
        }
      ],
      "leftModuleId": 206,
      "rightModuleId": 209,
      "pos": [
        97,
        1
      ]
    },
    {
      "id": 209,
      "plugin": "Fundamental",
      "version": "1.4.0",
      "model": "Scope",
      "params": [
        {
          "id": 0,
          "value": 0.0
        },
        {
          "id": 1,
          "value": 0.0
        },
        {
          "id": 2,
          "value": 0.0
        },
        {
          "id": 3,
          "value": 0.0
        },
        {
          "id": 4,
          "value": 7.07000065
        },
        {
          "id": 5,
          "value": 0.0
        },
        {
          "id": 6,
          "value": 0.0
        },
        {
          "id": 7,
          "value": 0.0
        }
      ],
      "leftModuleId": 208,
      "rightModuleId": 207,
      "data": {
        "lissajous": 0,
        "external": 0
      },
      "pos": [
        102,
        1
      ]
    },
    {
      "id": 210,
      "plugin": "Fundamental",
      "version": "1.4.0",
      "model": "ADSR",
      "params": [
        {
          "id": 0,
          "value": 0.153499931
        },
        {
          "id": 1,
          "value": 0.0275000259
        },
        {
          "id": 2,
          "value": 0.391000003
        },
        {
          "id": 3,
          "value": 0.402500063
        }
      ],
      "leftModuleId": 205,
      "rightModuleId": 212,
      "pos": [
        128,
        1
      ]
    },
    {
      "id": 211,
      "plugin": "Fundamental",
      "version": "1.4.0",
      "model": "VCF",
      "params": [
        {
          "id": 0,
          "value": 0.93650049
        },
        {
          "id": 1,
          "value": 0.5
        },
        {
          "id": 2,
          "value": 0.0
        },
        {
          "id": 3,
          "value": 0.522999763
        },
        {
          "id": 4,
          "value": 0.0
        }
      ],
      "leftModuleId": 218,
      "rightModuleId": 229,
      "pos": [
        159,
        1
      ]
    },
    {
      "id": 212,
      "plugin": "Fundamental",
      "version": "1.4.0",
      "model": "VCA-1",
      "params": [
        {
          "id": 0,
          "value": 1.0
        },
        {
          "id": 1,
          "value": 1.0
        }
      ],
      "leftModuleId": 210,
      "rightModuleId": 219,
      "pos": [
        136,
        1
      ]
    },
    {
      "id": 214,
      "plugin": "Fundamental",
      "version": "1.4.0",
      "model": "Scope",
      "params": [
        {
          "id": 0,
          "value": 0.0
        },
        {
          "id": 1,
          "value": 0.0
        },
        {
          "id": 2,
          "value": 0.0
        },
        {
          "id": 3,
          "value": 0.0
        },
        {
          "id": 4,
          "value": 6.0
        },
        {
          "id": 5,
          "value": 0.0
        },
        {
          "id": 6,
          "value": 0.0
        },
        {
          "id": 7,
          "value": 0.0
        }
      ],
      "rightModuleId": 217,
      "data": {
        "lissajous": 0,
        "external": 0
      },
      "pos": [
        70,
        1
      ]
    },
    {
      "id": 217,
      "plugin": "Fundamental",
      "version": "1.4.0",
      "model": "LFO",
      "params": [
        {
          "id": 0,
          "value": 1.0
        },
        {
          "id": 1,
          "value": 1.0
        },
        {
          "id": 2,
          "value": -0.485000491
        },
        {
          "id": 3,
          "value": 0.0
        },
        {
          "id": 4,
          "value": 0.0
        },
        {
          "id": 5,
          "value": 0.5
        },
        {
          "id": 6,
          "value": 0.0
        }
      ],
      "leftModuleId": 214,
      "rightModuleId": 206,
      "pos": [
        83,
        1
      ]
    },
    {
      "id": 218,
      "plugin": "Valley",
      "version": "1.0.1",
      "model": "Plateau",
      "params": [
        {
          "id": 0,
          "value": 1.0
        },
        {
          "id": 1,
          "value": 0.5
        },
        {
          "id": 2,
          "value": 0.0
        },
        {
          "id": 3,
          "value": 10.0
        },
        {
          "id": 4,
          "value": 10.0
        },
        {
          "id": 5,
          "value": 0.5
        },
        {
          "id": 6,
          "value": 10.0
        },
        {
          "id": 7,
          "value": 0.549950004
        },
        {
          "id": 8,
          "value": 10.0
        },
        {
          "id": 9,
          "value": 10.0
        },
        {
          "id": 10,
          "value": 0.0
        },
        {
          "id": 11,
          "value": 0.5
        },
        {
          "id": 12,
          "value": 0.5
        },
        {
          "id": 13,
          "value": 0.0
        },
        {
          "id": 14,
          "value": 0.0
        },
        {
          "id": 15,
          "value": 0.0
        },
        {
          "id": 16,
          "value": 0.0
        },
        {
          "id": 17,
          "value": 0.0
        },
        {
          "id": 18,
          "value": 0.0
        },
        {
          "id": 19,
          "value": 0.0
        },
        {
          "id": 20,
          "value": 0.0
        },
        {
          "id": 21,
          "value": 0.0
        },
        {
          "id": 22,
          "value": 0.0
        },
        {
          "id": 23,
          "value": 0.0
        },
        {
          "id": 24,
          "value": 0.0
        },
        {
          "id": 25,
          "value": 0.0
        },
        {
          "id": 26,
          "value": 0.0
        },
        {
          "id": 27,
          "value": 0.0
        },
        {
          "id": 28,
          "value": 0.0
        },
        {
          "id": 29,
          "value": 0.0
        },
        {
          "id": 30,
          "value": 1.0
        }
      ],
      "leftModuleId": 219,
      "rightModuleId": 211,
      "data": {
        "frozen": false,
        "freezeToggle": false,
        "panelStyle": 0,
        "tuned": 0,
        "diffuseInput": 1,
        "preDelayCVSens": 0,
        "inputSensitivity": 0,
        "outputSaturation": 0
      },
      "pos": [
        147,
        1
      ]
    },
    {
      "id": 219,
      "plugin": "Fundamental",
      "version": "1.4.0",
      "model": "Delay",
      "params": [
        {
          "id": 0,
          "value": 0.411499947
        },
        {
          "id": 1,
          "value": 0.682999969
        },
        {
          "id": 2,
          "value": 0.5
        },
        {
          "id": 3,
          "value": 0.693000257
        }
      ],
      "leftModuleId": 212,
      "rightModuleId": 218,
      "pos": [
        139,
        1
      ]
    },
    {
      "id": 220,
      "plugin": "NYSTHI",
      "version": "1.0.13",
      "model": "ScaleOffset",
      "params": [
        {
          "id": 0,
          "value": -28.0000019
        },
        {
          "id": 1,
          "value": 1.0
        },
        {
          "id": 2,
          "value": 10.0
        },
        {
          "id": 3,
          "value": 1.0
        }
      ],
      "data": {
        "m_snapped": false
      },
      "pos": [
        22,
        4
      ]
    },
    {
      "id": 225,
      "plugin": "Fundamental",
      "version": "1.4.0",
      "model": "Scope",
      "params": [
        {
          "id": 0,
          "value": 0.0
        },
        {
          "id": 1,
          "value": 0.0
        },
        {
          "id": 2,
          "value": 0.0
        },
        {
          "id": 3,
          "value": 0.0
        },
        {
          "id": 4,
          "value": 6.0
        },
        {
          "id": 5,
          "value": 0.0
        },
        {
          "id": 6,
          "value": 0.0
        },
        {
          "id": 7,
          "value": 0.0
        }
      ],
      "leftModuleId": 228,
      "data": {
        "lissajous": 0,
        "external": 0
      },
      "pos": [
        50,
        4
      ]
    },
    {
      "id": 228,
      "plugin": "Bogaudio",
      "version": "1.1.33",
      "model": "Bogaudio-Cmp",
      "params": [
        {
          "id": 0,
          "value": 0.0
        },
        {
          "id": 1,
          "value": 0.0510000139
        },
        {
          "id": 2,
          "value": 0.5
        },
        {
          "id": 3,
          "value": 0.100000001
        },
        {
          "id": 4,
          "value": 0.0
        }
      ],
      "rightModuleId": 225,
      "pos": [
        44,
        4
      ]
    },
    {
      "id": 229,
      "plugin": "Fundamental",
      "version": "1.4.0",
      "model": "Scope",
      "params": [
        {
          "id": 0,
          "value": 0.0
        },
        {
          "id": 1,
          "value": 0.0
        },
        {
          "id": 2,
          "value": 0.0
        },
        {
          "id": 3,
          "value": 0.0
        },
        {
          "id": 4,
          "value": 8.35499954
        },
        {
          "id": 5,
          "value": 0.0
        },
        {
          "id": 6,
          "value": 0.0
        },
        {
          "id": 7,
          "value": 0.0
        }
      ],
      "leftModuleId": 211,
      "data": {
        "lissajous": 0,
        "external": 0
      },
      "pos": [
        167,
        1
      ]
    },
    {
      "id": 232,
      "plugin": "Fundamental",
      "version": "1.4.0",
      "model": "Scope",
      "params": [
        {
          "id": 0,
          "value": 0.0
        },
        {
          "id": 1,
          "value": 0.0
        },
        {
          "id": 2,
          "value": 0.0
        },
        {
          "id": 3,
          "value": 0.0
        },
        {
          "id": 4,
          "value": 7.31999636
        },
        {
          "id": 5,
          "value": 0.0
        },
        {
          "id": 6,
          "value": 0.0
        },
        {
          "id": 7,
          "value": 0.0
        }
      ],
      "data": {
        "lissajous": 0,
        "external": 0
      },
      "pos": [
        28,
        0
      ]
    },
    {
      "id": 239,
      "plugin": "NYSTHI",
      "version": "1.0.13",
      "model": "ScaleOffset",
      "params": [
        {
          "id": 0,
          "value": -40.0
        },
        {
          "id": 1,
          "value": 2.0
        },
        {
          "id": 2,
          "value": -100.0
        },
        {
          "id": 3,
          "value": 2.0
        }
      ],
      "data": {
        "m_snapped": false
      },
      "pos": [
        18,
        0
      ]
    },
    {
      "id": 245,
      "plugin": "Bogaudio",
      "version": "1.1.33",
      "model": "Bogaudio-UMix",
      "params": [],
      "data": {
        "clipping_mode": 0,
        "input_gain_db": 0.0,
        "sum": true
      },
      "pos": [
        0,
        3
      ]
    },
    {
      "id": 246,
      "plugin": "NYSTHI",
      "version": "1.0.13",
      "model": "mix4",
      "params": [
        {
          "id": 0,
          "value": 0.0
        },
        {
          "id": 1,
          "value": 0.0
        },
        {
          "id": 2,
          "value": 0.0
        },
        {
          "id": 3,
          "value": 0.0
        },
        {
          "id": 4,
          "value": 0.0
        },
        {
          "id": 5,
          "value": 0.0
        },
        {
          "id": 6,
          "value": 0.0
        },
        {
          "id": 7,
          "value": 0.0
        },
        {
          "id": 8,
          "value": 0.0
        },
        {
          "id": 9,
          "value": 0.0
        },
        {
          "id": 10,
          "value": 0.100000001
        },
        {
          "id": 11,
          "value": 0.100000001
        },
        {
          "id": 12,
          "value": 0.0
        },
        {
          "id": 13,
          "value": 0.0
        },
        {
          "id": 14,
          "value": 0.0
        },
        {
          "id": 15,
          "value": 0.0
        },
        {
          "id": 16,
          "value": 0.0
        },
        {
          "id": 17,
          "value": 0.0
        },
        {
          "id": 18,
          "value": 0.0
        },
        {
          "id": 19,
          "value": 0.0
        },
        {
          "id": 20,
          "value": 0.0
        },
        {
          "id": 21,
          "value": 0.0
        },
        {
          "id": 22,
          "value": 0.0
        },
        {
          "id": 23,
          "value": 0.0
        }
      ],
      "leftModuleId": 249,
      "data": {
        "m_channels": [
          1.01678407,
          0.5,
          false,
          false,
          0.00099892274,
          0.5,
          false,
          false,
          1.0,
          0.5,
          false,
          false,
          1.0,
          0.5,
          false,
          false
        ],
        "m_master_volume": 1.0,
        "m_master_mute_trig": true,
        "m_low_power": false,
        "m_cvcompatible": false,
        "m_show_post_out": false,
        "m_post_outputs_unaffected_by_solo_mode": false,
        "m_attenuation": 1.0,
        "m_limiting_mode": 0,
        "m_poly_out": 4
      },
      "pos": [
        226,
        3
      ]
    },
    {
      "id": 247,
      "plugin": "NYSTHI",
      "version": "1.0.13",
      "model": "ScaleOffset",
      "params": [
        {
          "id": 0,
          "value": -10.0
        },
        {
          "id": 1,
          "value": 2.0
        },
        {
          "id": 2,
          "value": 0.0
        },
        {
          "id": 3,
          "value": 2.0
        }
      ],
      "leftModuleId": 5,
      "data": {
        "m_snapped": false
      },
      "pos": [
        219,
        4
      ]
    },
    {
      "id": 248,
      "plugin": "Fundamental",
      "version": "1.4.0",
      "model": "Quantizer",
      "params": [],
      "rightModuleId": 250,
      "data": {
        "enabledNotes": [
          false,
          false,
          false,
          true,
          false,
          true,
          false,
          true,
          false,
          false,
          false,
          false
        ]
      },
      "pos": [
        209,
        3
      ]
    },
    {
      "id": 249,
      "plugin": "NYSTHI",
      "version": "1.0.13",
      "model": "DissonantVerb",
      "params": [
        {
          "id": 0,
          "value": 0.699999988
        },
        {
          "id": 1,
          "value": 0.0
        },
        {
          "id": 2,
          "value": 0.0
        },
        {
          "id": 3,
          "value": 0.888499975
        },
        {
          "id": 4,
          "value": 0.200000003
        },
        {
          "id": 5,
          "value": 0.5
        },
        {
          "id": 6,
          "value": 0.399500161
        },
        {
          "id": 7,
          "value": 0.226499975
        },
        {
          "id": 8,
          "value": 0.980000019
        },
        {
          "id": 9,
          "value": 0.300000012
        },
        {
          "id": 10,
          "value": 1.0
        },
        {
          "id": 11,
          "value": 0.747500122
        },
        {
          "id": 12,
          "value": 0.0
        }
      ],
      "rightModuleId": 246,
      "pos": [
        219,
        3
      ]
    },
    {
      "id": 250,
      "plugin": "Bogaudio",
      "version": "1.1.33",
      "model": "Bogaudio-Sums",
      "params": [],
      "leftModuleId": 248,
      "data": {
        "disableOutputLimit": false
      },
      "pos": [
        212,
        3
      ]
    }
  ],
  "cables": [
    {
      "id": 634,
      "outputModuleId": 157,
      "outputId": 1,
      "inputModuleId": 157,
      "inputId": 0,
      "color": "#0986ad"
    },
    {
      "id": 677,
      "outputModuleId": 174,
      "outputId": 0,
      "inputModuleId": 184,
      "inputId": 1,
      "color": "#0c8e15"
    },
    {
      "id": 680,
      "outputModuleId": 184,
      "outputId": 1,
      "inputModuleId": 185,
      "inputId": 2,
      "color": "#c9b70e"
    },
    {
      "id": 681,
      "outputModuleId": 185,
      "outputId": 4,
      "inputModuleId": 185,
      "inputId": 1,
      "color": "#0c8e15"
    },
    {
      "id": 682,
      "outputModuleId": 184,
      "outputId": 1,
      "inputModuleId": 185,
      "inputId": 0,
      "color": "#c91847"
    },
    {
      "id": 683,
      "outputModuleId": 185,
      "outputId": 2,
      "inputModuleId": 170,
      "inputId": 1,
      "color": "#c9b70e"
    },
    {
      "id": 715,
      "outputModuleId": 185,
      "outputId": 2,
      "inputModuleId": 198,
      "inputId": 2,
      "color": "#0c8e15"
    },
    {
      "id": 719,
      "outputModuleId": 157,
      "outputId": 0,
      "inputModuleId": 198,
      "inputId": 1,
      "color": "#0c8e15"
    },
    {
      "id": 720,
      "outputModuleId": 157,
      "outputId": 0,
      "inputModuleId": 158,
      "inputId": 1,
      "color": "#c91847"
    },
    {
      "id": 725,
      "outputModuleId": 198,
      "outputId": 1,
      "inputModuleId": 204,
      "inputId": 2,
      "color": "#c9b70e"
    },
    {
      "id": 729,
      "outputModuleId": 204,
      "outputId": 1,
      "inputModuleId": 204,
      "inputId": 0,
      "color": "#c91847"
    },
    {
      "id": 733,
      "outputModuleId": 207,
      "outputId": 0,
      "inputModuleId": 205,
      "inputId": 0,
      "color": "#c91847"
    },
    {
      "id": 734,
      "outputModuleId": 206,
      "outputId": 6,
      "inputModuleId": 209,
      "inputId": 0,
      "color": "#0986ad"
    },
    {
      "id": 736,
      "outputModuleId": 208,
      "outputId": 0,
      "inputModuleId": 209,
      "inputId": 1,
      "color": "#0c8e15"
    },
    {
      "id": 737,
      "outputModuleId": 208,
      "outputId": 0,
      "inputModuleId": 207,
      "inputId": 0,
      "color": "#c91847"
    },
    {
      "id": 738,
      "outputModuleId": 211,
      "outputId": 0,
      "inputModuleId": 149,
      "inputId": 3,
      "color": "#0986ad"
    },
    {
      "id": 739,
      "outputModuleId": 201,
      "outputId": 2,
      "inputModuleId": 210,
      "inputId": 4,
      "color": "#c9b70e"
    },
    {
      "id": 740,
      "outputModuleId": 210,
      "outputId": 0,
      "inputModuleId": 212,
      "inputId": 0,
      "color": "#c91847"
    },
    {
      "id": 732,
      "outputModuleId": 205,
      "outputId": 3,
      "inputModuleId": 212,
      "inputId": 1,
      "color": "#0c8e15"
    },
    {
      "id": 744,
      "outputModuleId": 206,
      "outputId": 6,
      "inputModuleId": 214,
      "inputId": 0,
      "color": "#c91847"
    },
    {
      "id": 746,
      "outputModuleId": 206,
      "outputId": 6,
      "inputModuleId": 208,
      "inputId": 0,
      "color": "#c9b70e"
    },
    {
      "id": 743,
      "outputModuleId": 201,
      "outputId": 2,
      "inputModuleId": 206,
      "inputId": 4,
      "color": "#0c8e15"
    },
    {
      "id": 748,
      "outputModuleId": 217,
      "outputId": 2,
      "inputModuleId": 214,
      "inputId": 1,
      "color": "#c91847"
    },
    {
      "id": 750,
      "outputModuleId": 201,
      "outputId": 3,
      "inputModuleId": 217,
      "inputId": 2,
      "color": "#c9b70e"
    },
    {
      "id": 749,
      "outputModuleId": 217,
      "outputId": 2,
      "inputModuleId": 206,
      "inputId": 3,
      "color": "#0986ad"
    },
    {
      "id": 752,
      "outputModuleId": 218,
      "outputId": 0,
      "inputModuleId": 211,
      "inputId": 3,
      "color": "#c91847"
    },
    {
      "id": 753,
      "outputModuleId": 219,
      "outputId": 0,
      "inputModuleId": 218,
      "inputId": 1,
      "color": "#c9b70e"
    },
    {
      "id": 754,
      "outputModuleId": 219,
      "outputId": 0,
      "inputModuleId": 218,
      "inputId": 0,
      "color": "#0c8e15"
    },
    {
      "id": 755,
      "outputModuleId": 212,
      "outputId": 0,
      "inputModuleId": 219,
      "inputId": 4,
      "color": "#c91847"
    },
    {
      "id": 757,
      "outputModuleId": 220,
      "outputId": 0,
      "inputModuleId": 198,
      "inputId": 3,
      "color": "#0c8e15"
    },
    {
      "id": 758,
      "outputModuleId": 198,
      "outputId": 3,
      "inputModuleId": 211,
      "inputId": 0,
      "color": "#0986ad"
    },
    {
      "id": 765,
      "outputModuleId": 228,
      "outputId": 0,
      "inputModuleId": 198,
      "inputId": 4,
      "color": "#c9b70e"
    },
    {
      "id": 764,
      "outputModuleId": 228,
      "outputId": 0,
      "inputModuleId": 225,
      "inputId": 0,
      "color": "#0986ad"
    },
    {
      "id": 769,
      "outputModuleId": 212,
      "outputId": 0,
      "inputModuleId": 229,
      "inputId": 1,
      "color": "#c9b70e"
    },
    {
      "id": 773,
      "outputModuleId": 211,
      "outputId": 0,
      "inputModuleId": 149,
      "inputId": 20,
      "color": "#0986ad"
    },
    {
      "id": 775,
      "outputModuleId": 204,
      "outputId": 0,
      "inputModuleId": 232,
      "inputId": 0,
      "color": "#c9b70e"
    },
    {
      "id": 790,
      "outputModuleId": 239,
      "outputId": 0,
      "inputModuleId": 239,
      "inputId": 2,
      "color": "#0c8e15"
    },
    {
      "id": 763,
      "outputModuleId": 245,
      "outputId": 0,
      "inputModuleId": 228,
      "inputId": 0,
      "color": "#c91847"
    },
    {
      "id": 756,
      "outputModuleId": 245,
      "outputId": 0,
      "inputModuleId": 220,
      "inputId": 0,
      "color": "#0986ad"
    },
    {
      "id": 714,
      "outputModuleId": 245,
      "outputId": 0,
      "inputModuleId": 198,
      "inputId": 0,
      "color": "#c9b70e"
    },
    {
      "id": 678,
      "outputModuleId": 245,
      "outputId": 0,
      "inputModuleId": 184,
      "inputId": 0,
      "color": "#c91847"
    },
    {
      "id": 662,
      "outputModuleId": 245,
      "outputId": 0,
      "inputModuleId": 170,
      "inputId": 0,
      "color": "#0c8e15"
    },
    {
      "id": 663,
      "outputModuleId": 245,
      "outputId": 0,
      "inputModuleId": 174,
      "inputId": 0,
      "color": "#c91847"
    },
    {
      "id": 625,
      "outputModuleId": 245,
      "outputId": 0,
      "inputModuleId": 158,
      "inputId": 0,
      "color": "#c91847"
    },
    {
      "id": 623,
      "outputModuleId": 245,
      "outputId": 0,
      "inputModuleId": 157,
      "inputId": 2,
      "color": "#0986ad"
    },
    {
      "id": 799,
      "outputModuleId": 149,
      "outputId": 1,
      "inputModuleId": 246,
      "inputId": 0,
      "color": "#0986ad"
    },
    {
      "id": 798,
      "outputModuleId": 149,
      "outputId": 0,
      "inputModuleId": 246,
      "inputId": 5,
      "color": "#c91847"
    },
    {
      "id": 810,
      "outputModuleId": 246,
      "outputId": 1,
      "inputModuleId": 1,
      "inputId": 0,
      "color": "#0986ad"
    },
    {
      "id": 811,
      "outputModuleId": 246,
      "outputId": 0,
      "inputModuleId": 1,
      "inputId": 1,
      "color": "#c9b70e"
    },
    {
      "id": 812,
      "outputModuleId": 5,
      "outputId": 2,
      "inputModuleId": 247,
      "inputId": 0,
      "color": "#0c8e15"
    },
    {
      "id": 814,
      "outputModuleId": 149,
      "outputId": 1,
      "inputModuleId": 248,
      "inputId": 0,
      "color": "#0986ad"
    },
    {
      "id": 819,
      "outputModuleId": 248,
      "outputId": 0,
      "inputModuleId": 250,
      "inputId": 0,
      "color": "#0c8e15"
    },
    {
      "id": 820,
      "outputModuleId": 149,
      "outputId": 1,
      "inputModuleId": 250,
      "inputId": 1,
      "color": "#c91847"
    },
    {
      "id": 821,
      "outputModuleId": 250,
      "outputId": 1,
      "inputModuleId": 246,
      "inputId": 6,
      "color": "#c9b70e"
    },
    {
      "id": 822,
      "outputModuleId": 250,
      "outputId": 1,
      "inputModuleId": 246,
      "inputId": 1,
      "color": "#0c8e15"
    },
    {
      "id": 813,
      "outputModuleId": 247,
      "outputId": 0,
      "inputModuleId": 246,
      "inputId": 10,
      "color": "#c91847"
    },
    {
      "id": 823,
      "outputModuleId": 5,
      "outputId": 2,
      "inputModuleId": 246,
      "inputId": 11,
      "color": "#c91847"
    }
  ]
}