{
  "version": "1.1.6",
  "modules": [
    {
      "id": 1,
      "plugin": "Core",
      "version": "1.1.6",
      "model": "AudioInterface",
      "params": [],
      "data": {
        "audio": {
          "driver": 8,
          "deviceName": "Default Device",
          "offset": 0,
          "maxChannels": 8,
          "sampleRate": 44100,
          "blockSize": 256
        }
      },
      "pos": [
        164,
        1
      ]
    },
    {
      "id": 5,
      "plugin": "Core",
      "version": "1.1.6",
      "model": "MIDIToCVInterface",
      "params": [],
      "data": {
        "channels": 1,
        "polyMode": 0,
        "clockDivision": 24,
        "lastPitch": 8192,
        "lastMod": 0,
        "midi": {
          "driver": 4,
          "deviceName": "DESKTOP-O66NHEI 0",
          "channel": 3
        }
      },
      "pos": [
        157,
        3
      ]
    },
    {
      "id": 149,
      "plugin": "NYSTHI",
      "version": "1.0.13",
      "model": "mix16",
      "params": [
        {
          "id": 0,
          "value": 0.0
        },
        {
          "id": 1,
          "value": 0.0
        },
        {
          "id": 2,
          "value": 0.0
        },
        {
          "id": 3,
          "value": 0.0
        },
        {
          "id": 4,
          "value": 0.0
        },
        {
          "id": 5,
          "value": 0.0
        },
        {
          "id": 6,
          "value": 0.0
        },
        {
          "id": 7,
          "value": 0.0
        },
        {
          "id": 8,
          "value": 0.0
        },
        {
          "id": 9,
          "value": 0.0
        },
        {
          "id": 10,
          "value": 0.0
        },
        {
          "id": 11,
          "value": 0.0
        },
        {
          "id": 12,
          "value": 0.0
        },
        {
          "id": 13,
          "value": 0.0
        },
        {
          "id": 14,
          "value": 0.0
        },
        {
          "id": 15,
          "value": 0.0
        },
        {
          "id": 16,
          "value": 0.0
        },
        {
          "id": 17,
          "value": 0.0
        },
        {
          "id": 18,
          "value": 0.0
        },
        {
          "id": 19,
          "value": 0.0
        },
        {
          "id": 20,
          "value": 0.0
        },
        {
          "id": 21,
          "value": 0.0
        },
        {
          "id": 22,
          "value": 0.0
        },
        {
          "id": 23,
          "value": 0.0
        },
        {
          "id": 24,
          "value": 0.0
        },
        {
          "id": 25,
          "value": 0.0
        },
        {
          "id": 26,
          "value": 0.0
        },
        {
          "id": 27,
          "value": 0.0
        },
        {
          "id": 28,
          "value": 0.0
        },
        {
          "id": 29,
          "value": 0.0
        },
        {
          "id": 30,
          "value": 0.0
        },
        {
          "id": 31,
          "value": 0.0
        },
        {
          "id": 32,
          "value": 0.0
        },
        {
          "id": 33,
          "value": 0.0
        },
        {
          "id": 34,
          "value": 0.0
        },
        {
          "id": 35,
          "value": 0.0
        },
        {
          "id": 36,
          "value": 0.0
        },
        {
          "id": 37,
          "value": 0.0
        },
        {
          "id": 38,
          "value": 0.0
        },
        {
          "id": 39,
          "value": 0.0
        },
        {
          "id": 40,
          "value": 0.0
        },
        {
          "id": 41,
          "value": 0.0
        },
        {
          "id": 42,
          "value": 0.0
        },
        {
          "id": 43,
          "value": 0.0
        },
        {
          "id": 44,
          "value": 0.0
        },
        {
          "id": 45,
          "value": 0.0
        },
        {
          "id": 46,
          "value": 0.0
        },
        {
          "id": 47,
          "value": 0.0
        },
        {
          "id": 48,
          "value": 0.0
        },
        {
          "id": 49,
          "value": 0.0
        },
        {
          "id": 50,
          "value": 0.0
        },
        {
          "id": 51,
          "value": 0.0
        },
        {
          "id": 52,
          "value": 0.0
        },
        {
          "id": 53,
          "value": 0.0
        },
        {
          "id": 54,
          "value": 0.0
        },
        {
          "id": 55,
          "value": 0.0
        },
        {
          "id": 56,
          "value": 0.0
        },
        {
          "id": 57,
          "value": 0.0
        },
        {
          "id": 58,
          "value": 0.0
        },
        {
          "id": 59,
          "value": 0.0
        },
        {
          "id": 60,
          "value": 0.0
        },
        {
          "id": 61,
          "value": 0.0
        },
        {
          "id": 62,
          "value": 0.0
        },
        {
          "id": 63,
          "value": 0.0
        },
        {
          "id": 64,
          "value": 0.0
        },
        {
          "id": 65,
          "value": 0.0
        },
        {
          "id": 66,
          "value": 0.0
        },
        {
          "id": 67,
          "value": 0.0
        },
        {
          "id": 68,
          "value": 0.0
        },
        {
          "id": 69,
          "value": 0.0
        },
        {
          "id": 70,
          "value": 0.0
        },
        {
          "id": 71,
          "value": 0.0
        }
      ],
      "data": {
        "m_channels": [
          0.286156058,
          0.5,
          true,
          false,
          0.331480294,
          0.5,
          false,
          false,
          1.0,
          0.5,
          false,
          false,
          0.931991279,
          0.5,
          true,
          false,
          0.890685081,
          0.5,
          false,
          false,
          1.0,
          0.5,
          false,
          false,
          1.0,
          0.5,
          false,
          false,
          1.0,
          0.5,
          false,
          false,
          1.0,
          0.5,
          false,
          false,
          1.0,
          0.5,
          false,
          false,
          1.0,
          0.5,
          false,
          false,
          1.0,
          0.5,
          false,
          false,
          1.0,
          0.5,
          false,
          false,
          1.0,
          0.5,
          false,
          false,
          1.0,
          0.5,
          false,
          false,
          1.0,
          0.5,
          false,
          false
        ],
        "m_master_volume": 1.03463304,
        "m_master_mute_trig": true,
        "m_low_power": false,
        "m_cvcompatible": false,
        "m_show_post_out": false,
        "m_post_outputs_unaffected_by_solo_mode": false,
        "m_attenuation": 1.0,
        "m_limiting_mode": 0,
        "m_poly_out": 16
      },
      "pos": [
        132,
        2
      ]
    },
    {
      "id": 201,
      "plugin": "ImpromptuModular",
      "version": "1.1.8",
      "model": "Clocked",
      "params": [
        {
          "id": 0,
          "value": 45.0
        },
        {
          "id": 1,
          "value": -9.0
        },
        {
          "id": 2,
          "value": 4.0
        },
        {
          "id": 3,
          "value": -5.0
        },
        {
          "id": 4,
          "value": 0.0
        },
        {
          "id": 5,
          "value": 0.0
        },
        {
          "id": 6,
          "value": 0.0
        },
        {
          "id": 7,
          "value": 0.0
        },
        {
          "id": 8,
          "value": 0.5
        },
        {
          "id": 9,
          "value": 0.5
        },
        {
          "id": 10,
          "value": 0.5
        },
        {
          "id": 11,
          "value": 0.5
        },
        {
          "id": 12,
          "value": 0.0
        },
        {
          "id": 13,
          "value": 0.0
        },
        {
          "id": 14,
          "value": 0.0
        },
        {
          "id": 15,
          "value": 0.0
        },
        {
          "id": 16,
          "value": 0.0
        },
        {
          "id": 17,
          "value": 0.0
        },
        {
          "id": 18,
          "value": 0.0
        },
        {
          "id": 19,
          "value": 0.0
        }
      ],
      "data": {
        "panelTheme": 0,
        "running": true,
        "displayDelayNoteMode": true,
        "bpmDetectionMode": false,
        "resetOnStartStop": 0,
        "ppqn": 4,
        "resetClockOutputsHigh": true,
        "momentaryRunInput": true,
        "clockMaster": false
      },
      "pos": [
        0,
        2
      ]
    },
    {
      "id": 205,
      "plugin": "Fundamental",
      "version": "1.4.0",
      "model": "VCO",
      "params": [
        {
          "id": 0,
          "value": 1.0
        },
        {
          "id": 1,
          "value": 1.0
        },
        {
          "id": 2,
          "value": 10.2443419
        },
        {
          "id": 3,
          "value": -0.185999781
        },
        {
          "id": 4,
          "value": 0.327000111
        },
        {
          "id": 5,
          "value": 0.5
        },
        {
          "id": 6,
          "value": 0.0
        }
      ],
      "pos": [
        57,
        1
      ]
    },
    {
      "id": 206,
      "plugin": "AudibleInstruments",
      "version": "1.3.1",
      "model": "Kinks",
      "params": [],
      "rightModuleId": 208,
      "pos": [
        37,
        2
      ]
    },
    {
      "id": 207,
      "plugin": "Fundamental",
      "version": "1.4.0",
      "model": "Quantizer",
      "params": [],
      "leftModuleId": 208,
      "data": {
        "enabledNotes": [
          true,
          false,
          true,
          false,
          true,
          true,
          false,
          false,
          false,
          true,
          true,
          false
        ]
      },
      "pos": [
        46,
        2
      ]
    },
    {
      "id": 208,
      "plugin": "Befaco",
      "version": "1.0.1",
      "model": "DualAtenuverter",
      "params": [
        {
          "id": 0,
          "value": 0.165000036
        },
        {
          "id": 1,
          "value": 1.86000013
        },
        {
          "id": 2,
          "value": 0.0
        },
        {
          "id": 3,
          "value": 0.0
        }
      ],
      "leftModuleId": 206,
      "rightModuleId": 207,
      "pos": [
        41,
        2
      ]
    },
    {
      "id": 209,
      "plugin": "Fundamental",
      "version": "1.4.0",
      "model": "Scope",
      "params": [
        {
          "id": 0,
          "value": 0.0
        },
        {
          "id": 1,
          "value": 0.0
        },
        {
          "id": 2,
          "value": 0.0
        },
        {
          "id": 3,
          "value": 0.0
        },
        {
          "id": 4,
          "value": 7.07000065
        },
        {
          "id": 5,
          "value": 0.0
        },
        {
          "id": 6,
          "value": 0.0
        },
        {
          "id": 7,
          "value": 0.0
        }
      ],
      "data": {
        "lissajous": 0,
        "external": 0
      },
      "pos": [
        29,
        1
      ]
    },
    {
      "id": 210,
      "plugin": "Fundamental",
      "version": "1.4.0",
      "model": "ADSR",
      "params": [
        {
          "id": 0,
          "value": 0.0
        },
        {
          "id": 1,
          "value": 0.0
        },
        {
          "id": 2,
          "value": 0.340999931
        },
        {
          "id": 3,
          "value": 0.233999968
        }
      ],
      "pos": [
        72,
        1
      ]
    },
    {
      "id": 211,
      "plugin": "Fundamental",
      "version": "1.4.0",
      "model": "VCF",
      "params": [
        {
          "id": 0,
          "value": 0.93650049
        },
        {
          "id": 1,
          "value": 0.5
        },
        {
          "id": 2,
          "value": 0.0
        },
        {
          "id": 3,
          "value": 0.522999763
        },
        {
          "id": 4,
          "value": 0.0
        }
      ],
      "pos": [
        108,
        1
      ]
    },
    {
      "id": 212,
      "plugin": "Fundamental",
      "version": "1.4.0",
      "model": "VCA-1",
      "params": [
        {
          "id": 0,
          "value": 1.0
        },
        {
          "id": 1,
          "value": 1.0
        }
      ],
      "pos": [
        83,
        1
      ]
    },
    {
      "id": 214,
      "plugin": "Fundamental",
      "version": "1.4.0",
      "model": "Scope",
      "params": [
        {
          "id": 0,
          "value": 0.0
        },
        {
          "id": 1,
          "value": 0.0
        },
        {
          "id": 2,
          "value": 0.0
        },
        {
          "id": 3,
          "value": 0.0
        },
        {
          "id": 4,
          "value": 6.0
        },
        {
          "id": 5,
          "value": 0.0
        },
        {
          "id": 6,
          "value": 0.0
        },
        {
          "id": 7,
          "value": 0.0
        }
      ],
      "data": {
        "lissajous": 0,
        "external": 0
      },
      "pos": [
        14,
        1
      ]
    },
    {
      "id": 217,
      "plugin": "Fundamental",
      "version": "1.4.0",
      "model": "LFO",
      "params": [
        {
          "id": 0,
          "value": 1.0
        },
        {
          "id": 1,
          "value": 1.0
        },
        {
          "id": 2,
          "value": -0.485000491
        },
        {
          "id": 3,
          "value": 0.0
        },
        {
          "id": 4,
          "value": 0.0
        },
        {
          "id": 5,
          "value": 0.5
        },
        {
          "id": 6,
          "value": 0.0
        }
      ],
      "pos": [
        26,
        2
      ]
    },
    {
      "id": 218,
      "plugin": "Valley",
      "version": "1.0.1",
      "model": "Plateau",
      "params": [
        {
          "id": 0,
          "value": 1.0
        },
        {
          "id": 1,
          "value": 0.5
        },
        {
          "id": 2,
          "value": 0.0
        },
        {
          "id": 3,
          "value": 10.0
        },
        {
          "id": 4,
          "value": 10.0
        },
        {
          "id": 5,
          "value": 0.5
        },
        {
          "id": 6,
          "value": 10.0
        },
        {
          "id": 7,
          "value": 0.549950004
        },
        {
          "id": 8,
          "value": 10.0
        },
        {
          "id": 9,
          "value": 10.0
        },
        {
          "id": 10,
          "value": 0.0
        },
        {
          "id": 11,
          "value": 0.5
        },
        {
          "id": 12,
          "value": 0.5
        },
        {
          "id": 13,
          "value": 0.0
        },
        {
          "id": 14,
          "value": 0.0
        },
        {
          "id": 15,
          "value": 0.0
        },
        {
          "id": 16,
          "value": 0.0
        },
        {
          "id": 17,
          "value": 0.0
        },
        {
          "id": 18,
          "value": 0.0
        },
        {
          "id": 19,
          "value": 0.0
        },
        {
          "id": 20,
          "value": 0.0
        },
        {
          "id": 21,
          "value": 0.0
        },
        {
          "id": 22,
          "value": 0.0
        },
        {
          "id": 23,
          "value": 0.0
        },
        {
          "id": 24,
          "value": 0.0
        },
        {
          "id": 25,
          "value": 0.0
        },
        {
          "id": 26,
          "value": 0.0
        },
        {
          "id": 27,
          "value": 0.0
        },
        {
          "id": 28,
          "value": 0.0
        },
        {
          "id": 29,
          "value": 0.0
        },
        {
          "id": 30,
          "value": 1.0
        }
      ],
      "leftModuleId": 219,
      "data": {
        "frozen": false,
        "freezeToggle": false,
        "panelStyle": 0,
        "tuned": 0,
        "diffuseInput": 1,
        "preDelayCVSens": 0,
        "inputSensitivity": 0,
        "outputSaturation": 0
      },
      "pos": [
        95,
        1
      ]
    },
    {
      "id": 219,
      "plugin": "Fundamental",
      "version": "1.4.0",
      "model": "Delay",
      "params": [
        {
          "id": 0,
          "value": 0.411499947
        },
        {
          "id": 1,
          "value": 0.682999969
        },
        {
          "id": 2,
          "value": 0.5
        },
        {
          "id": 3,
          "value": 0.693000257
        }
      ],
      "rightModuleId": 218,
      "pos": [
        87,
        1
      ]
    },
    {
      "id": 229,
      "plugin": "Fundamental",
      "version": "1.4.0",
      "model": "Scope",
      "params": [
        {
          "id": 0,
          "value": 0.0
        },
        {
          "id": 1,
          "value": 0.0
        },
        {
          "id": 2,
          "value": 0.0
        },
        {
          "id": 3,
          "value": 0.0
        },
        {
          "id": 4,
          "value": 8.35499954
        },
        {
          "id": 5,
          "value": 0.0
        },
        {
          "id": 6,
          "value": 0.0
        },
        {
          "id": 7,
          "value": 0.0
        }
      ],
      "data": {
        "lissajous": 0,
        "external": 0
      },
      "pos": [
        67,
        0
      ]
    },
    {
      "id": 246,
      "plugin": "NYSTHI",
      "version": "1.0.13",
      "model": "mix4",
      "params": [
        {
          "id": 0,
          "value": 0.0
        },
        {
          "id": 1,
          "value": 0.0
        },
        {
          "id": 2,
          "value": 0.0
        },
        {
          "id": 3,
          "value": 0.0
        },
        {
          "id": 4,
          "value": 0.0
        },
        {
          "id": 5,
          "value": 0.0
        },
        {
          "id": 6,
          "value": 0.0
        },
        {
          "id": 7,
          "value": 0.0
        },
        {
          "id": 8,
          "value": 0.0
        },
        {
          "id": 9,
          "value": 0.0
        },
        {
          "id": 10,
          "value": 0.100000001
        },
        {
          "id": 11,
          "value": 0.100000001
        },
        {
          "id": 12,
          "value": 0.100000001
        },
        {
          "id": 13,
          "value": 0.0
        },
        {
          "id": 14,
          "value": 0.0
        },
        {
          "id": 15,
          "value": 0.0
        },
        {
          "id": 16,
          "value": 0.0
        },
        {
          "id": 17,
          "value": 0.0
        },
        {
          "id": 18,
          "value": 0.0
        },
        {
          "id": 19,
          "value": 0.0
        },
        {
          "id": 20,
          "value": 0.0
        },
        {
          "id": 21,
          "value": 0.0
        },
        {
          "id": 22,
          "value": 0.0
        },
        {
          "id": 23,
          "value": 0.0
        }
      ],
      "data": {
        "m_channels": [
          1.01480579,
          0.5,
          false,
          false,
          0.000987853156,
          0.5,
          false,
          false,
          0.000619805884,
          0.5,
          false,
          false,
          1.0,
          0.5,
          false,
          false
        ],
        "m_master_volume": 1.0,
        "m_master_mute_trig": false,
        "m_low_power": false,
        "m_cvcompatible": false,
        "m_show_post_out": false,
        "m_post_outputs_unaffected_by_solo_mode": false,
        "m_attenuation": 1.0,
        "m_limiting_mode": 0,
        "m_poly_out": 4
      },
      "pos": [
        136,
        1
      ]
    },
    {
      "id": 247,
      "plugin": "NYSTHI",
      "version": "1.0.13",
      "model": "ScaleOffset",
      "params": [
        {
          "id": 0,
          "value": -10.0
        },
        {
          "id": 1,
          "value": 2.0
        },
        {
          "id": 2,
          "value": 0.0
        },
        {
          "id": 3,
          "value": 2.0
        }
      ],
      "data": {
        "m_snapped": false
      },
      "pos": [
        143,
        3
      ]
    },
    {
      "id": 248,
      "plugin": "Fundamental",
      "version": "1.4.0",
      "model": "Quantizer",
      "params": [],
      "data": {
        "enabledNotes": [
          false,
          false,
          false,
          false,
          false,
          false,
          true,
          false,
          false,
          false,
          false,
          false
        ]
      },
      "pos": [
        117,
        1
      ]
    },
    {
      "id": 249,
      "plugin": "NYSTHI",
      "version": "1.0.13",
      "model": "DissonantVerb",
      "params": [
        {
          "id": 0,
          "value": 0.699999988
        },
        {
          "id": 1,
          "value": 0.0
        },
        {
          "id": 2,
          "value": 0.0
        },
        {
          "id": 3,
          "value": 0.888499975
        },
        {
          "id": 4,
          "value": 0.200000003
        },
        {
          "id": 5,
          "value": 0.5
        },
        {
          "id": 6,
          "value": 0.399500161
        },
        {
          "id": 7,
          "value": 0.226499975
        },
        {
          "id": 8,
          "value": 0.980000019
        },
        {
          "id": 9,
          "value": 0.300000012
        },
        {
          "id": 10,
          "value": 1.0
        },
        {
          "id": 11,
          "value": 0.747500122
        },
        {
          "id": 12,
          "value": 0.0
        }
      ],
      "pos": [
        167,
        2
      ]
    },
    {
      "id": 250,
      "plugin": "Bogaudio",
      "version": "1.1.33",
      "model": "Bogaudio-Sums",
      "params": [],
      "data": {
        "disableOutputLimit": false
      },
      "pos": [
        126,
        1
      ]
    },
    {
      "id": 251,
      "plugin": "Fundamental",
      "version": "1.4.0",
      "model": "Quantizer",
      "params": [],
      "rightModuleId": 256,
      "data": {
        "enabledNotes": [
          true,
          false,
          true,
          false,
          false,
          true,
          false,
          false,
          false,
          true,
          false,
          false
        ]
      },
      "pos": [
        39,
        3
      ]
    },
    {
      "id": 252,
      "plugin": "Fundamental",
      "version": "1.4.0",
      "model": "VCO",
      "params": [
        {
          "id": 0,
          "value": 1.0
        },
        {
          "id": 1,
          "value": 1.0
        },
        {
          "id": 2,
          "value": 0.0
        },
        {
          "id": 3,
          "value": -0.185999781
        },
        {
          "id": 4,
          "value": 0.327000111
        },
        {
          "id": 5,
          "value": 0.5
        },
        {
          "id": 6,
          "value": 0.0
        }
      ],
      "leftModuleId": 256,
      "pos": [
        50,
        3
      ]
    },
    {
      "id": 253,
      "plugin": "Fundamental",
      "version": "1.4.0",
      "model": "LFO",
      "params": [
        {
          "id": 0,
          "value": 1.0
        },
        {
          "id": 1,
          "value": 1.0
        },
        {
          "id": 2,
          "value": -3.51799989
        },
        {
          "id": 3,
          "value": 0.0
        },
        {
          "id": 4,
          "value": 0.0
        },
        {
          "id": 5,
          "value": 0.5
        },
        {
          "id": 6,
          "value": 0.0
        }
      ],
      "pos": [
        10,
        3
      ]
    },
    {
      "id": 254,
      "plugin": "NYSTHI",
      "version": "1.0.13",
      "model": "ScaleOffset",
      "params": [
        {
          "id": 0,
          "value": 0.39999938
        },
        {
          "id": 1,
          "value": 2.0
        },
        {
          "id": 2,
          "value": -8.69999886
        },
        {
          "id": 3,
          "value": 2.0
        }
      ],
      "data": {
        "m_snapped": false
      },
      "pos": [
        29,
        3
      ]
    },
    {
      "id": 255,
      "plugin": "AudibleInstruments",
      "version": "1.3.1",
      "model": "Kinks",
      "params": [],
      "pos": [
        21,
        3
      ]
    },
    {
      "id": 256,
      "plugin": "Fundamental",
      "version": "1.4.0",
      "model": "VCF",
      "params": [
        {
          "id": 0,
          "value": 0.0
        },
        {
          "id": 1,
          "value": 0.5
        },
        {
          "id": 2,
          "value": 0.0
        },
        {
          "id": 3,
          "value": 1.0
        },
        {
          "id": 4,
          "value": 0.0
        }
      ],
      "leftModuleId": 251,
      "rightModuleId": 252,
      "pos": [
        42,
        3
      ]
    },
    {
      "id": 258,
      "plugin": "NYSTHI",
      "version": "1.0.13",
      "model": "mix4",
      "params": [
        {
          "id": 0,
          "value": 0.0
        },
        {
          "id": 1,
          "value": 0.0
        },
        {
          "id": 2,
          "value": 0.0
        },
        {
          "id": 3,
          "value": 0.0
        },
        {
          "id": 4,
          "value": 0.0
        },
        {
          "id": 5,
          "value": 0.0
        },
        {
          "id": 6,
          "value": 0.0
        },
        {
          "id": 7,
          "value": 0.0
        },
        {
          "id": 8,
          "value": 0.0
        },
        {
          "id": 9,
          "value": 0.0
        },
        {
          "id": 10,
          "value": 0.100000001
        },
        {
          "id": 11,
          "value": 0.100000001
        },
        {
          "id": 12,
          "value": 0.0233499967
        },
        {
          "id": 13,
          "value": 0.0443499535
        },
        {
          "id": 14,
          "value": 0.0
        },
        {
          "id": 15,
          "value": 0.0
        },
        {
          "id": 16,
          "value": 0.0
        },
        {
          "id": 17,
          "value": 0.0
        },
        {
          "id": 18,
          "value": 0.0
        },
        {
          "id": 19,
          "value": 0.0
        },
        {
          "id": 20,
          "value": 0.0
        },
        {
          "id": 21,
          "value": 0.0
        },
        {
          "id": 22,
          "value": 0.0
        },
        {
          "id": 23,
          "value": 0.0
        }
      ],
      "data": {
        "m_channels": [
          1.0390029,
          0.5,
          false,
          false,
          0.9809196,
          0.5,
          false,
          false,
          0.000990880188,
          0.5,
          false,
          false,
          0.000990271219,
          0.5,
          false,
          false
        ],
        "m_master_volume": 1.0,
        "m_master_mute_trig": false,
        "m_low_power": false,
        "m_cvcompatible": false,
        "m_show_post_out": false,
        "m_post_outputs_unaffected_by_solo_mode": false,
        "m_attenuation": 1.0,
        "m_limiting_mode": 0,
        "m_poly_out": 4
      },
      "pos": [
        110,
        3
      ]
    },
    {
      "id": 260,
      "plugin": "NYSTHI",
      "version": "1.0.13",
      "model": "DYNAMO",
      "params": [
        {
          "id": 0,
          "value": 0.00100000005
        },
        {
          "id": 1,
          "value": 0.20175001
        },
        {
          "id": 2,
          "value": 0.00999999978
        },
        {
          "id": 3,
          "value": 2.0
        },
        {
          "id": 4,
          "value": 0.977499962
        },
        {
          "id": 5,
          "value": 0.208940163
        },
        {
          "id": 6,
          "value": 3.69730282
        },
        {
          "id": 7,
          "value": 1.14885962
        },
        {
          "id": 8,
          "value": 0.0
        },
        {
          "id": 9,
          "value": 0.0
        },
        {
          "id": 10,
          "value": 0.0
        },
        {
          "id": 11,
          "value": 0.0
        },
        {
          "id": 12,
          "value": 0.0
        }
      ],
      "leftModuleId": 266,
      "rightModuleId": 263,
      "data": {
        "m_bypass": false,
        "m_show_info": false,
        "m_limiting": true,
        "m_ducking": false,
        "m_brickwallducking": true
      },
      "pos": [
        88,
        3
      ]
    },
    {
      "id": 261,
      "plugin": "voxglitch",
      "version": "1.18.0",
      "model": "goblins",
      "params": [
        {
          "id": 0,
          "value": 0.0
        },
        {
          "id": 1,
          "value": 0.0
        },
        {
          "id": 2,
          "value": 0.5
        },
        {
          "id": 3,
          "value": 1.0
        },
        {
          "id": 4,
          "value": 0.200000003
        },
        {
          "id": 5,
          "value": 1.0
        },
        {
          "id": 6,
          "value": 1.0
        },
        {
          "id": 7,
          "value": 1.0
        },
        {
          "id": 8,
          "value": 0.0
        },
        {
          "id": 9,
          "value": 1.0
        },
        {
          "id": 10,
          "value": 0.0
        },
        {
          "id": 11,
          "value": 1.0
        },
        {
          "id": 12,
          "value": 0.0
        }
      ],
      "data": {
        "loaded_sample_path_1": "",
        "loaded_sample_path_2": "",
        "loaded_sample_path_3": "",
        "loaded_sample_path_4": "",
        "loaded_sample_path_5": ""
      },
      "pos": [
        62,
        2
      ]
    },
    {
      "id": 262,
      "plugin": "Fundamental",
      "version": "1.4.0",
      "model": "LFO",
      "params": [
        {
          "id": 0,
          "value": 1.0
        },
        {
          "id": 1,
          "value": 1.0
        },
        {
          "id": 2,
          "value": 3.36700058
        },
        {
          "id": 3,
          "value": 0.0
        },
        {
          "id": 4,
          "value": 0.0
        },
        {
          "id": 5,
          "value": 0.5
        },
        {
          "id": 6,
          "value": 0.0
        }
      ],
      "pos": [
        95,
        4
      ]
    },
    {
      "id": 263,
      "plugin": "Fundamental",
      "version": "1.4.0",
      "model": "VCF",
      "params": [
        {
          "id": 0,
          "value": 0.357000649
        },
        {
          "id": 1,
          "value": 0.5
        },
        {
          "id": 2,
          "value": 0.0
        },
        {
          "id": 3,
          "value": 0.967000008
        },
        {
          "id": 4,
          "value": 1.0
        }
      ],
      "leftModuleId": 260,
      "pos": [
        98,
        3
      ]
    },
    {
      "id": 266,
      "plugin": "AudibleInstruments",
      "version": "1.3.1",
      "model": "Clouds",
      "params": [
        {
          "id": 0,
          "value": 0.0
        },
        {
          "id": 1,
          "value": 0.0
        },
        {
          "id": 2,
          "value": 0.0
        },
        {
          "id": 3,
          "value": 0.466499925
        },
        {
          "id": 4,
          "value": 0.435499936
        },
        {
          "id": 5,
          "value": 2.0
        },
        {
          "id": 6,
          "value": 1.0
        },
        {
          "id": 7,
          "value": 1.0
        },
        {
          "id": 8,
          "value": 0.519000053
        },
        {
          "id": 9,
          "value": 1.0
        },
        {
          "id": 10,
          "value": 0.0
        },
        {
          "id": 11,
          "value": 0.0
        },
        {
          "id": 12,
          "value": 0.0
        }
      ],
      "rightModuleId": 260,
      "data": {
        "playback": 0,
        "quality": 0,
        "blendMode": 2
      },
      "pos": [
        70,
        3
      ]
    },
    {
      "id": 267,
      "plugin": "Fundamental",
      "version": "1.4.0",
      "model": "VCF",
      "params": [
        {
          "id": 0,
          "value": 0.25150001
        },
        {
          "id": 1,
          "value": 0.5
        },
        {
          "id": 2,
          "value": 0.0
        },
        {
          "id": 3,
          "value": 0.967000008
        },
        {
          "id": 4,
          "value": 0.161999986
        }
      ],
      "pos": [
        74,
        4
      ]
    },
    {
      "id": 268,
      "plugin": "NYSTHI",
      "version": "1.0.13",
      "model": "ScaleOffset",
      "params": [
        {
          "id": 0,
          "value": 3.39999938
        },
        {
          "id": 1,
          "value": 2.0
        },
        {
          "id": 2,
          "value": 0.0
        },
        {
          "id": 3,
          "value": 2.0
        }
      ],
      "data": {
        "m_snapped": false
      },
      "pos": [
        100,
        0
      ]
    },
    {
      "id": 269,
      "plugin": "Valley",
      "version": "1.0.1",
      "model": "Plateau",
      "params": [
        {
          "id": 0,
          "value": 0.0
        },
        {
          "id": 1,
          "value": 0.646999955
        },
        {
          "id": 2,
          "value": 0.375750005
        },
        {
          "id": 3,
          "value": 10.0
        },
        {
          "id": 4,
          "value": 10.0
        },
        {
          "id": 5,
          "value": 0.5
        },
        {
          "id": 6,
          "value": 10.0
        },
        {
          "id": 7,
          "value": 0.549950004
        },
        {
          "id": 8,
          "value": 10.0
        },
        {
          "id": 9,
          "value": 10.0
        },
        {
          "id": 10,
          "value": 0.0
        },
        {
          "id": 11,
          "value": 0.5
        },
        {
          "id": 12,
          "value": 0.5
        },
        {
          "id": 13,
          "value": 0.0
        },
        {
          "id": 14,
          "value": 0.0
        },
        {
          "id": 15,
          "value": 0.0
        },
        {
          "id": 16,
          "value": 0.0
        },
        {
          "id": 17,
          "value": 0.0
        },
        {
          "id": 18,
          "value": 0.0
        },
        {
          "id": 19,
          "value": 0.0
        },
        {
          "id": 20,
          "value": 0.0
        },
        {
          "id": 21,
          "value": 0.0
        },
        {
          "id": 22,
          "value": 0.0
        },
        {
          "id": 23,
          "value": 0.0
        },
        {
          "id": 24,
          "value": 0.0
        },
        {
          "id": 25,
          "value": 0.0
        },
        {
          "id": 26,
          "value": 0.0
        },
        {
          "id": 27,
          "value": 0.0
        },
        {
          "id": 28,
          "value": 0.0
        },
        {
          "id": 29,
          "value": 0.0
        },
        {
          "id": 30,
          "value": 1.0
        }
      ],
      "data": {
        "frozen": false,
        "freezeToggle": false,
        "panelStyle": 0,
        "tuned": 0,
        "diffuseInput": 1,
        "preDelayCVSens": 0,
        "inputSensitivity": 0,
        "outputSaturation": 0
      },
      "pos": [
        53,
        4
      ]
    }
  ],
  "cables": [
    {
      "id": 733,
      "outputModuleId": 207,
      "outputId": 0,
      "inputModuleId": 205,
      "inputId": 0,
      "color": "#c91847"
    },
    {
      "id": 734,
      "outputModuleId": 206,
      "outputId": 6,
      "inputModuleId": 209,
      "inputId": 0,
      "color": "#0986ad"
    },
    {
      "id": 736,
      "outputModuleId": 208,
      "outputId": 0,
      "inputModuleId": 209,
      "inputId": 1,
      "color": "#0c8e15"
    },
    {
      "id": 737,
      "outputModuleId": 208,
      "outputId": 0,
      "inputModuleId": 207,
      "inputId": 0,
      "color": "#c91847"
    },
    {
      "id": 739,
      "outputModuleId": 201,
      "outputId": 2,
      "inputModuleId": 210,
      "inputId": 4,
      "color": "#c9b70e"
    },
    {
      "id": 740,
      "outputModuleId": 210,
      "outputId": 0,
      "inputModuleId": 212,
      "inputId": 0,
      "color": "#c91847"
    },
    {
      "id": 732,
      "outputModuleId": 205,
      "outputId": 3,
      "inputModuleId": 212,
      "inputId": 1,
      "color": "#0c8e15"
    },
    {
      "id": 744,
      "outputModuleId": 206,
      "outputId": 6,
      "inputModuleId": 214,
      "inputId": 0,
      "color": "#c91847"
    },
    {
      "id": 746,
      "outputModuleId": 206,
      "outputId": 6,
      "inputModuleId": 208,
      "inputId": 0,
      "color": "#c9b70e"
    },
    {
      "id": 743,
      "outputModuleId": 201,
      "outputId": 2,
      "inputModuleId": 206,
      "inputId": 4,
      "color": "#0c8e15"
    },
    {
      "id": 748,
      "outputModuleId": 217,
      "outputId": 2,
      "inputModuleId": 214,
      "inputId": 1,
      "color": "#c91847"
    },
    {
      "id": 750,
      "outputModuleId": 201,
      "outputId": 3,
      "inputModuleId": 217,
      "inputId": 2,
      "color": "#c9b70e"
    },
    {
      "id": 749,
      "outputModuleId": 217,
      "outputId": 2,
      "inputModuleId": 206,
      "inputId": 3,
      "color": "#0986ad"
    },
    {
      "id": 752,
      "outputModuleId": 218,
      "outputId": 0,
      "inputModuleId": 211,
      "inputId": 3,
      "color": "#c91847"
    },
    {
      "id": 753,
      "outputModuleId": 219,
      "outputId": 0,
      "inputModuleId": 218,
      "inputId": 1,
      "color": "#c9b70e"
    },
    {
      "id": 754,
      "outputModuleId": 219,
      "outputId": 0,
      "inputModuleId": 218,
      "inputId": 0,
      "color": "#0c8e15"
    },
    {
      "id": 755,
      "outputModuleId": 212,
      "outputId": 0,
      "inputModuleId": 219,
      "inputId": 4,
      "color": "#c91847"
    },
    {
      "id": 769,
      "outputModuleId": 212,
      "outputId": 0,
      "inputModuleId": 229,
      "inputId": 1,
      "color": "#c9b70e"
    },
    {
      "id": 819,
      "outputModuleId": 248,
      "outputId": 0,
      "inputModuleId": 250,
      "inputId": 0,
      "color": "#0c8e15"
    },
    {
      "id": 821,
      "outputModuleId": 250,
      "outputId": 1,
      "inputModuleId": 246,
      "inputId": 6,
      "color": "#c9b70e"
    },
    {
      "id": 822,
      "outputModuleId": 250,
      "outputId": 1,
      "inputModuleId": 246,
      "inputId": 1,
      "color": "#0c8e15"
    },
    {
      "id": 813,
      "outputModuleId": 247,
      "outputId": 0,
      "inputModuleId": 246,
      "inputId": 10,
      "color": "#c91847"
    },
    {
      "id": 812,
      "outputModuleId": 5,
      "outputId": 2,
      "inputModuleId": 247,
      "inputId": 2,
      "color": "#0c8e15"
    },
    {
      "id": 824,
      "outputModuleId": 247,
      "outputId": 1,
      "inputModuleId": 246,
      "inputId": 11,
      "color": "#c91847"
    },
    {
      "id": 825,
      "outputModuleId": 247,
      "outputId": 1,
      "inputModuleId": 247,
      "inputId": 0,
      "color": "#0986ad"
    },
    {
      "id": 829,
      "outputModuleId": 254,
      "outputId": 0,
      "inputModuleId": 254,
      "inputId": 2,
      "color": "#0c8e15"
    },
    {
      "id": 830,
      "outputModuleId": 254,
      "outputId": 1,
      "inputModuleId": 251,
      "inputId": 0,
      "color": "#c91847"
    },
    {
      "id": 831,
      "outputModuleId": 201,
      "outputId": 1,
      "inputModuleId": 253,
      "inputId": 2,
      "color": "#c9b70e"
    },
    {
      "id": 833,
      "outputModuleId": 201,
      "outputId": 2,
      "inputModuleId": 255,
      "inputId": 4,
      "color": "#c91847"
    },
    {
      "id": 834,
      "outputModuleId": 255,
      "outputId": 6,
      "inputModuleId": 254,
      "inputId": 0,
      "color": "#0986ad"
    },
    {
      "id": 773,
      "outputModuleId": 211,
      "outputId": 0,
      "inputModuleId": 248,
      "inputId": 0,
      "color": "#0986ad"
    },
    {
      "id": 836,
      "outputModuleId": 211,
      "outputId": 0,
      "inputModuleId": 246,
      "inputId": 0,
      "color": "#c91847"
    },
    {
      "id": 837,
      "outputModuleId": 211,
      "outputId": 0,
      "inputModuleId": 246,
      "inputId": 5,
      "color": "#0986ad"
    },
    {
      "id": 811,
      "outputModuleId": 246,
      "outputId": 0,
      "inputModuleId": 149,
      "inputId": 20,
      "color": "#c9b70e"
    },
    {
      "id": 810,
      "outputModuleId": 246,
      "outputId": 1,
      "inputModuleId": 149,
      "inputId": 3,
      "color": "#0986ad"
    },
    {
      "id": 838,
      "outputModuleId": 149,
      "outputId": 1,
      "inputModuleId": 1,
      "inputId": 1,
      "color": "#c9b70e"
    },
    {
      "id": 839,
      "outputModuleId": 149,
      "outputId": 0,
      "inputModuleId": 1,
      "inputId": 0,
      "color": "#0c8e15"
    },
    {
      "id": 840,
      "outputModuleId": 251,
      "outputId": 0,
      "inputModuleId": 256,
      "inputId": 3,
      "color": "#c91847"
    },
    {
      "id": 841,
      "outputModuleId": 256,
      "outputId": 0,
      "inputModuleId": 252,
      "inputId": 0,
      "color": "#c9b70e"
    },
    {
      "id": 832,
      "outputModuleId": 258,
      "outputId": 1,
      "inputModuleId": 149,
      "inputId": 0,
      "color": "#0c8e15"
    },
    {
      "id": 826,
      "outputModuleId": 258,
      "outputId": 0,
      "inputModuleId": 149,
      "inputId": 17,
      "color": "#c91847"
    },
    {
      "id": 853,
      "outputModuleId": 260,
      "outputId": 1,
      "inputModuleId": 263,
      "inputId": 3,
      "color": "#c9b70e"
    },
    {
      "id": 860,
      "outputModuleId": 262,
      "outputId": 3,
      "inputModuleId": 263,
      "inputId": 0,
      "color": "#0c8e15"
    },
    {
      "id": 874,
      "outputModuleId": 247,
      "outputId": 1,
      "inputModuleId": 266,
      "inputId": 0,
      "color": "#0986ad"
    },
    {
      "id": 875,
      "outputModuleId": 262,
      "outputId": 3,
      "inputModuleId": 267,
      "inputId": 0,
      "color": "#c9b70e"
    },
    {
      "id": 872,
      "outputModuleId": 266,
      "outputId": 1,
      "inputModuleId": 267,
      "inputId": 3,
      "color": "#0c8e15"
    },
    {
      "id": 877,
      "outputModuleId": 267,
      "outputId": 1,
      "inputModuleId": 258,
      "inputId": 8,
      "color": "#0986ad"
    },
    {
      "id": 876,
      "outputModuleId": 267,
      "outputId": 1,
      "inputModuleId": 258,
      "inputId": 3,
      "color": "#c91847"
    },
    {
      "id": 862,
      "outputModuleId": 263,
      "outputId": 0,
      "inputModuleId": 258,
      "inputId": 7,
      "color": "#0986ad"
    },
    {
      "id": 863,
      "outputModuleId": 263,
      "outputId": 0,
      "inputModuleId": 258,
      "inputId": 2,
      "color": "#c9b70e"
    },
    {
      "id": 864,
      "outputModuleId": 247,
      "outputId": 0,
      "inputModuleId": 258,
      "inputId": 10,
      "color": "#0c8e15"
    },
    {
      "id": 865,
      "outputModuleId": 247,
      "outputId": 1,
      "inputModuleId": 258,
      "inputId": 12,
      "color": "#c91847"
    },
    {
      "id": 878,
      "outputModuleId": 247,
      "outputId": 1,
      "inputModuleId": 258,
      "inputId": 13,
      "color": "#0c8e15"
    },
    {
      "id": 879,
      "outputModuleId": 247,
      "outputId": 0,
      "inputModuleId": 258,
      "inputId": 11,
      "color": "#c91847"
    },
    {
      "id": 828,
      "outputModuleId": 253,
      "outputId": 1,
      "inputModuleId": 255,
      "inputId": 3,
      "color": "#c9b70e"
    },
    {
      "id": 885,
      "outputModuleId": 247,
      "outputId": 1,
      "inputModuleId": 268,
      "inputId": 0,
      "color": "#0c8e15"
    },
    {
      "id": 886,
      "outputModuleId": 268,
      "outputId": 0,
      "inputModuleId": 210,
      "inputId": 0,
      "color": "#c91847"
    },
    {
      "id": 870,
      "outputModuleId": 269,
      "outputId": 1,
      "inputModuleId": 266,
      "inputId": 7,
      "color": "#0986ad"
    },
    {
      "id": 861,
      "outputModuleId": 269,
      "outputId": 1,
      "inputModuleId": 260,
      "inputId": 1,
      "color": "#c91847"
    },
    {
      "id": 869,
      "outputModuleId": 269,
      "outputId": 1,
      "inputModuleId": 266,
      "inputId": 6,
      "color": "#c91847"
    },
    {
      "id": 856,
      "outputModuleId": 269,
      "outputId": 1,
      "inputModuleId": 260,
      "inputId": 0,
      "color": "#0986ad"
    },
    {
      "id": 843,
      "outputModuleId": 269,
      "outputId": 1,
      "inputModuleId": 258,
      "inputId": 0,
      "color": "#c91847"
    },
    {
      "id": 842,
      "outputModuleId": 269,
      "outputId": 1,
      "inputModuleId": 258,
      "inputId": 5,
      "color": "#0c8e15"
    },
    {
      "id": 887,
      "outputModuleId": 252,
      "outputId": 1,
      "inputModuleId": 269,
      "inputId": 1,
      "color": "#0986ad"
    },
    {
      "id": 888,
      "outputModuleId": 252,
      "outputId": 1,
      "inputModuleId": 269,
      "inputId": 0,
      "color": "#c9b70e"
    }
  ]
}