{
  "version": "1.1.6",
  "modules": [
    {
      "id": 1,
      "plugin": "Core",
      "version": "1.1.6",
      "model": "AudioInterface",
      "params": [],
      "data": {
        "audio": {
          "driver": 8,
          "deviceName": "Default Device",
          "offset": 0,
          "maxChannels": 8,
          "sampleRate": 44100,
          "blockSize": 256
        }
      },
      "pos": [
        226,
        3
      ]
    },
    {
      "id": 5,
      "plugin": "Core",
      "version": "1.1.6",
      "model": "MIDIToCVInterface",
      "params": [],
      "data": {
        "channels": 1,
        "polyMode": 0,
        "clockDivision": 24,
        "lastPitch": 8192,
        "lastMod": 0,
        "midi": {
          "driver": 4,
          "deviceName": "DESKTOP-O66NHEI 0",
          "channel": 1
        }
      },
      "pos": [
        0,
        3
      ]
    },
    {
      "id": 145,
      "plugin": "Autodafe-REDsFREE",
      "version": "1.0.0",
      "model": "KICK",
      "params": [
        {
          "id": 0,
          "value": -17.6399956
        },
        {
          "id": 1,
          "value": 2402.00513
        },
        {
          "id": 2,
          "value": 0.0
        },
        {
          "id": 3,
          "value": 0.0
        },
        {
          "id": 4,
          "value": 575.0
        },
        {
          "id": 5,
          "value": 0.0
        },
        {
          "id": 6,
          "value": 0.100000001
        },
        {
          "id": 7,
          "value": 1.39899993
        },
        {
          "id": 8,
          "value": 0.0
        },
        {
          "id": 9,
          "value": 0.0
        },
        {
          "id": 10,
          "value": 1.0
        }
      ],
      "rightModuleId": 147,
      "pos": [
        99,
        5
      ]
    },
    {
      "id": 147,
      "plugin": "Autodafe-DrumKit",
      "version": "1.0.0",
      "model": "DrumsSnare",
      "params": [
        {
          "id": 0,
          "value": 0.0
        }
      ],
      "leftModuleId": 145,
      "rightModuleId": 152,
      "data": {
        "sampletype": 4
      },
      "pos": [
        115,
        5
      ]
    },
    {
      "id": 148,
      "plugin": "Fundamental",
      "version": "1.4.0",
      "model": "SEQ3",
      "params": [
        {
          "id": 0,
          "value": -2.0
        },
        {
          "id": 1,
          "value": 0.0
        },
        {
          "id": 2,
          "value": 0.0
        },
        {
          "id": 3,
          "value": 8.0
        },
        {
          "id": 4,
          "value": 1.48500001
        },
        {
          "id": 5,
          "value": 1.85999954
        },
        {
          "id": 6,
          "value": 2.23500013
        },
        {
          "id": 7,
          "value": 2.47500014
        },
        {
          "id": 8,
          "value": 2.41500139
        },
        {
          "id": 9,
          "value": 2.22000074
        },
        {
          "id": 10,
          "value": 1.84499919
        },
        {
          "id": 11,
          "value": 1.63499975
        },
        {
          "id": 12,
          "value": 0.0
        },
        {
          "id": 13,
          "value": 0.0
        },
        {
          "id": 14,
          "value": 0.0
        },
        {
          "id": 15,
          "value": 0.0
        },
        {
          "id": 16,
          "value": 0.0
        },
        {
          "id": 17,
          "value": 0.0
        },
        {
          "id": 18,
          "value": 0.0
        },
        {
          "id": 19,
          "value": 0.0
        },
        {
          "id": 20,
          "value": 0.0
        },
        {
          "id": 21,
          "value": 0.0
        },
        {
          "id": 22,
          "value": 0.0
        },
        {
          "id": 23,
          "value": 0.0
        },
        {
          "id": 24,
          "value": 0.0
        },
        {
          "id": 25,
          "value": 0.0
        },
        {
          "id": 26,
          "value": 0.0
        },
        {
          "id": 27,
          "value": 0.0
        },
        {
          "id": 28,
          "value": 0.0
        },
        {
          "id": 29,
          "value": 0.0
        },
        {
          "id": 30,
          "value": 0.0
        },
        {
          "id": 31,
          "value": 0.0
        },
        {
          "id": 32,
          "value": 0.0
        },
        {
          "id": 33,
          "value": 0.0
        },
        {
          "id": 34,
          "value": 0.0
        },
        {
          "id": 35,
          "value": 0.0
        }
      ],
      "data": {
        "running": true,
        "gates": [
          1,
          1,
          1,
          1,
          1,
          1,
          1,
          1
        ]
      },
      "pos": [
        76,
        5
      ]
    },
    {
      "id": 149,
      "plugin": "NYSTHI",
      "version": "1.0.13",
      "model": "mix16",
      "params": [
        {
          "id": 0,
          "value": 0.0
        },
        {
          "id": 1,
          "value": 0.0
        },
        {
          "id": 2,
          "value": 0.0
        },
        {
          "id": 3,
          "value": 0.0
        },
        {
          "id": 4,
          "value": 0.0
        },
        {
          "id": 5,
          "value": 0.0
        },
        {
          "id": 6,
          "value": 0.0
        },
        {
          "id": 7,
          "value": 0.0
        },
        {
          "id": 8,
          "value": 0.0
        },
        {
          "id": 9,
          "value": 0.0
        },
        {
          "id": 10,
          "value": 0.0
        },
        {
          "id": 11,
          "value": 0.0
        },
        {
          "id": 12,
          "value": 0.0
        },
        {
          "id": 13,
          "value": 0.0
        },
        {
          "id": 14,
          "value": 0.0
        },
        {
          "id": 15,
          "value": 0.0
        },
        {
          "id": 16,
          "value": 0.0
        },
        {
          "id": 17,
          "value": 0.0
        },
        {
          "id": 18,
          "value": 0.0
        },
        {
          "id": 19,
          "value": 0.0
        },
        {
          "id": 20,
          "value": 0.0
        },
        {
          "id": 21,
          "value": 0.0
        },
        {
          "id": 22,
          "value": 0.0
        },
        {
          "id": 23,
          "value": 0.0
        },
        {
          "id": 24,
          "value": 0.0
        },
        {
          "id": 25,
          "value": 0.0
        },
        {
          "id": 26,
          "value": 0.0
        },
        {
          "id": 27,
          "value": 0.0
        },
        {
          "id": 28,
          "value": 0.0
        },
        {
          "id": 29,
          "value": 0.0
        },
        {
          "id": 30,
          "value": 0.0
        },
        {
          "id": 31,
          "value": 0.0
        },
        {
          "id": 32,
          "value": 0.0
        },
        {
          "id": 33,
          "value": 0.0
        },
        {
          "id": 34,
          "value": 0.0
        },
        {
          "id": 35,
          "value": 0.0
        },
        {
          "id": 36,
          "value": 0.0
        },
        {
          "id": 37,
          "value": 0.0
        },
        {
          "id": 38,
          "value": 0.0
        },
        {
          "id": 39,
          "value": 0.0
        },
        {
          "id": 40,
          "value": 0.0
        },
        {
          "id": 41,
          "value": 0.0
        },
        {
          "id": 42,
          "value": 0.0
        },
        {
          "id": 43,
          "value": 0.0
        },
        {
          "id": 44,
          "value": 0.0
        },
        {
          "id": 45,
          "value": 0.0
        },
        {
          "id": 46,
          "value": 0.0
        },
        {
          "id": 47,
          "value": 0.0
        },
        {
          "id": 48,
          "value": 0.0
        },
        {
          "id": 49,
          "value": 0.0
        },
        {
          "id": 50,
          "value": 0.0
        },
        {
          "id": 51,
          "value": 0.0
        },
        {
          "id": 52,
          "value": 0.0
        },
        {
          "id": 53,
          "value": 0.0
        },
        {
          "id": 54,
          "value": 0.0
        },
        {
          "id": 55,
          "value": 0.0
        },
        {
          "id": 56,
          "value": 0.0
        },
        {
          "id": 57,
          "value": 0.0
        },
        {
          "id": 58,
          "value": 0.0
        },
        {
          "id": 59,
          "value": 0.0
        },
        {
          "id": 60,
          "value": 0.0
        },
        {
          "id": 61,
          "value": 0.0
        },
        {
          "id": 62,
          "value": 0.0
        },
        {
          "id": 63,
          "value": 0.0
        },
        {
          "id": 64,
          "value": 0.0
        },
        {
          "id": 65,
          "value": 0.0
        },
        {
          "id": 66,
          "value": 0.0
        },
        {
          "id": 67,
          "value": 0.0
        },
        {
          "id": 68,
          "value": 0.0
        },
        {
          "id": 69,
          "value": 0.0
        },
        {
          "id": 70,
          "value": 0.0
        },
        {
          "id": 71,
          "value": 0.0
        }
      ],
      "data": {
        "m_channels": [
          1.0,
          0.5,
          true,
          false,
          0.326911896,
          0.5,
          true,
          false,
          1.0,
          0.5,
          false,
          false,
          0.282209694,
          0.5,
          true,
          false,
          0.885365367,
          0.5,
          false,
          false,
          1.0,
          0.5,
          false,
          false,
          1.0,
          0.5,
          false,
          false,
          1.0,
          0.5,
          false,
          false,
          1.0,
          0.5,
          false,
          false,
          1.0,
          0.5,
          false,
          false,
          1.0,
          0.5,
          false,
          false,
          1.0,
          0.5,
          false,
          false,
          1.0,
          0.5,
          false,
          false,
          1.0,
          0.5,
          false,
          false,
          1.0,
          0.5,
          false,
          false,
          1.0,
          0.5,
          false,
          false
        ],
        "m_master_volume": 1.0,
        "m_master_mute_trig": false,
        "m_low_power": false,
        "m_cvcompatible": false,
        "m_show_post_out": false,
        "m_post_outputs_unaffected_by_solo_mode": false,
        "m_attenuation": 1.0,
        "m_limiting_mode": 0,
        "m_poly_out": 16
      },
      "pos": [
        178,
        3
      ]
    },
    {
      "id": 150,
      "plugin": "NYSTHI",
      "version": "1.0.13",
      "model": "mix4",
      "params": [
        {
          "id": 0,
          "value": 0.0
        },
        {
          "id": 1,
          "value": 0.0
        },
        {
          "id": 2,
          "value": 0.0
        },
        {
          "id": 3,
          "value": 0.0
        },
        {
          "id": 4,
          "value": 0.0
        },
        {
          "id": 5,
          "value": 0.0
        },
        {
          "id": 6,
          "value": 0.0
        },
        {
          "id": 7,
          "value": 0.0
        },
        {
          "id": 8,
          "value": 0.0
        },
        {
          "id": 9,
          "value": 0.0
        },
        {
          "id": 10,
          "value": 0.0
        },
        {
          "id": 11,
          "value": 0.0
        },
        {
          "id": 12,
          "value": 0.0
        },
        {
          "id": 13,
          "value": 0.0
        },
        {
          "id": 14,
          "value": 0.0
        },
        {
          "id": 15,
          "value": 0.0
        },
        {
          "id": 16,
          "value": 0.0
        },
        {
          "id": 17,
          "value": 0.0
        },
        {
          "id": 18,
          "value": 0.0
        },
        {
          "id": 19,
          "value": 0.0
        },
        {
          "id": 20,
          "value": 0.0
        },
        {
          "id": 21,
          "value": 0.100000001
        },
        {
          "id": 22,
          "value": 0.0
        },
        {
          "id": 23,
          "value": 0.0
        }
      ],
      "leftModuleId": 154,
      "rightModuleId": 230,
      "data": {
        "m_channels": [
          1.0,
          0.5,
          false,
          false,
          1.0,
          0.5,
          false,
          false,
          0.716713846,
          0.5,
          false,
          false,
          0.327857077,
          0.5,
          false,
          false
        ],
        "m_master_volume": 0.000987648964,
        "m_master_mute_trig": false,
        "m_low_power": false,
        "m_cvcompatible": false,
        "m_show_post_out": false,
        "m_post_outputs_unaffected_by_solo_mode": false,
        "m_attenuation": 1.0,
        "m_limiting_mode": 0,
        "m_poly_out": 4
      },
      "pos": [
        168,
        5
      ]
    },
    {
      "id": 151,
      "plugin": "Autodafe-REDsFREE",
      "version": "1.0.0",
      "model": "HATS",
      "params": [
        {
          "id": 0,
          "value": 15.1000004
        },
        {
          "id": 1,
          "value": 3317.71045
        },
        {
          "id": 2,
          "value": 1.0
        },
        {
          "id": 3,
          "value": 171.0
        },
        {
          "id": 4,
          "value": 328.75
        },
        {
          "id": 5,
          "value": 0.100000001
        },
        {
          "id": 6,
          "value": 1.0
        },
        {
          "id": 7,
          "value": 0.0
        },
        {
          "id": 8,
          "value": 0.849999964
        },
        {
          "id": 9,
          "value": 1.0
        },
        {
          "id": 10,
          "value": 0.5
        },
        {
          "id": 11,
          "value": 0.75
        }
      ],
      "leftModuleId": 166,
      "rightModuleId": 168,
      "pos": [
        141,
        5
      ]
    },
    {
      "id": 152,
      "plugin": "Bogaudio",
      "version": "1.1.33",
      "model": "Bogaudio-UMix",
      "params": [],
      "leftModuleId": 147,
      "rightModuleId": 167,
      "data": {
        "clipping_mode": 0,
        "input_gain_db": 0.0,
        "sum": true
      },
      "pos": [
        119,
        5
      ]
    },
    {
      "id": 154,
      "plugin": "Fundamental",
      "version": "1.4.0",
      "model": "Delay",
      "params": [
        {
          "id": 0,
          "value": 0.100999713
        },
        {
          "id": 1,
          "value": 0.851499856
        },
        {
          "id": 2,
          "value": 0.5
        },
        {
          "id": 3,
          "value": 0.0
        }
      ],
      "leftModuleId": 168,
      "rightModuleId": 150,
      "pos": [
        160,
        5
      ]
    },
    {
      "id": 157,
      "plugin": "NYSTHI",
      "version": "1.0.13",
      "model": "ScaleOffset",
      "params": [
        {
          "id": 0,
          "value": 6.03998756
        },
        {
          "id": 1,
          "value": 1.0
        },
        {
          "id": 2,
          "value": 10.0
        },
        {
          "id": 3,
          "value": 1.0
        }
      ],
      "data": {
        "m_snapped": false
      },
      "pos": [
        22,
        3
      ]
    },
    {
      "id": 158,
      "plugin": "Fundamental",
      "version": "1.4.0",
      "model": "Scope",
      "params": [
        {
          "id": 0,
          "value": 0.0
        },
        {
          "id": 1,
          "value": 0.0
        },
        {
          "id": 2,
          "value": 0.0
        },
        {
          "id": 3,
          "value": 0.0
        },
        {
          "id": 4,
          "value": 6.0
        },
        {
          "id": 5,
          "value": 0.0
        },
        {
          "id": 6,
          "value": 0.0
        },
        {
          "id": 7,
          "value": 0.0
        }
      ],
      "leftModuleId": 170,
      "rightModuleId": 198,
      "data": {
        "lissajous": 0,
        "external": 0
      },
      "pos": [
        26,
        2
      ]
    },
    {
      "id": 159,
      "plugin": "Fundamental",
      "version": "1.4.0",
      "model": "VCO",
      "params": [
        {
          "id": 0,
          "value": 1.0
        },
        {
          "id": 1,
          "value": 1.0
        },
        {
          "id": 2,
          "value": -25.7579975
        },
        {
          "id": 3,
          "value": 0.0
        },
        {
          "id": 4,
          "value": 0.0
        },
        {
          "id": 5,
          "value": 0.5
        },
        {
          "id": 6,
          "value": 0.0
        }
      ],
      "rightModuleId": 163,
      "pos": [
        107,
        3
      ]
    },
    {
      "id": 160,
      "plugin": "Fundamental",
      "version": "1.4.0",
      "model": "Scope",
      "params": [
        {
          "id": 0,
          "value": 0.0
        },
        {
          "id": 1,
          "value": 0.0
        },
        {
          "id": 2,
          "value": 0.0
        },
        {
          "id": 3,
          "value": 0.0
        },
        {
          "id": 4,
          "value": 6.0
        },
        {
          "id": 5,
          "value": 0.0
        },
        {
          "id": 6,
          "value": 0.0
        },
        {
          "id": 7,
          "value": 0.0
        }
      ],
      "data": {
        "lissajous": 0,
        "external": 0
      },
      "pos": [
        78,
        3
      ]
    },
    {
      "id": 161,
      "plugin": "Fundamental",
      "version": "1.4.0",
      "model": "Quantizer",
      "params": [],
      "leftModuleId": 165,
      "data": {
        "enabledNotes": [
          true,
          false,
          true,
          true,
          false,
          true,
          false,
          true,
          true,
          false,
          true,
          false
        ]
      },
      "pos": [
        103,
        3
      ]
    },
    {
      "id": 162,
      "plugin": "NYSTHI",
      "version": "1.0.13",
      "model": "mix4",
      "params": [
        {
          "id": 0,
          "value": 0.0
        },
        {
          "id": 1,
          "value": 0.0
        },
        {
          "id": 2,
          "value": 0.0
        },
        {
          "id": 3,
          "value": 0.0
        },
        {
          "id": 4,
          "value": 0.0
        },
        {
          "id": 5,
          "value": 0.0
        },
        {
          "id": 6,
          "value": 0.0
        },
        {
          "id": 7,
          "value": 0.0
        },
        {
          "id": 8,
          "value": 0.0
        },
        {
          "id": 9,
          "value": 0.0
        },
        {
          "id": 10,
          "value": 0.0
        },
        {
          "id": 11,
          "value": 0.100000001
        },
        {
          "id": 12,
          "value": 0.0
        },
        {
          "id": 13,
          "value": 0.0
        },
        {
          "id": 14,
          "value": 0.0
        },
        {
          "id": 15,
          "value": 0.0
        },
        {
          "id": 16,
          "value": 0.0
        },
        {
          "id": 17,
          "value": 0.0
        },
        {
          "id": 18,
          "value": 0.0
        },
        {
          "id": 19,
          "value": 0.0
        },
        {
          "id": 20,
          "value": 0.0
        },
        {
          "id": 21,
          "value": 0.0
        },
        {
          "id": 22,
          "value": 0.0
        },
        {
          "id": 23,
          "value": 0.0
        }
      ],
      "leftModuleId": 164,
      "data": {
        "m_channels": [
          0.66603756,
          0.5,
          true,
          false,
          1.0,
          0.5,
          true,
          true,
          0.655861855,
          0.5,
          false,
          false,
          0.328631312,
          0.5,
          false,
          false
        ],
        "m_master_volume": 0.658064842,
        "m_master_mute_trig": false,
        "m_low_power": false,
        "m_cvcompatible": false,
        "m_show_post_out": false,
        "m_post_outputs_unaffected_by_solo_mode": false,
        "m_attenuation": 1.0,
        "m_limiting_mode": 0,
        "m_poly_out": 4
      },
      "pos": [
        137,
        3
      ]
    },
    {
      "id": 164,
      "plugin": "NYSTHI",
      "version": "1.0.13",
      "model": "ScaleOffset",
      "params": [
        {
          "id": 0,
          "value": -30.3999996
        },
        {
          "id": 1,
          "value": 1.0
        },
        {
          "id": 2,
          "value": 0.0
        },
        {
          "id": 3,
          "value": 1.0
        }
      ],
      "leftModuleId": 163,
      "rightModuleId": 162,
      "data": {
        "m_snapped": false
      },
      "pos": [
        129,
        3
      ]
    },
    {
      "id": 165,
      "plugin": "NYSTHI",
      "version": "1.0.13",
      "model": "ScaleOffset",
      "params": [
        {
          "id": 0,
          "value": 12.999999
        },
        {
          "id": 1,
          "value": 2.0
        },
        {
          "id": 2,
          "value": 36.9999771
        },
        {
          "id": 3,
          "value": 2.0
        }
      ],
      "rightModuleId": 161,
      "data": {
        "m_snapped": false
      },
      "pos": [
        95,
        3
      ]
    },
    {
      "id": 166,
      "plugin": "Autodafe-REDsFREE",
      "version": "1.0.0",
      "model": "HATS",
      "params": [
        {
          "id": 0,
          "value": 15.1000004
        },
        {
          "id": 1,
          "value": 3317.71045
        },
        {
          "id": 2,
          "value": 1.0
        },
        {
          "id": 3,
          "value": 31.5
        },
        {
          "id": 4,
          "value": 244.0
        },
        {
          "id": 5,
          "value": 0.100000001
        },
        {
          "id": 6,
          "value": 1.0
        },
        {
          "id": 7,
          "value": 0.0
        },
        {
          "id": 8,
          "value": 0.849999964
        },
        {
          "id": 9,
          "value": 1.0
        },
        {
          "id": 10,
          "value": 0.5
        },
        {
          "id": 11,
          "value": 0.75
        }
      ],
      "leftModuleId": 167,
      "rightModuleId": 151,
      "pos": [
        125,
        5
      ]
    },
    {
      "id": 167,
      "plugin": "Bogaudio",
      "version": "1.1.33",
      "model": "Bogaudio-UMix",
      "params": [],
      "leftModuleId": 152,
      "rightModuleId": 166,
      "data": {
        "clipping_mode": 0,
        "input_gain_db": 0.0,
        "sum": true
      },
      "pos": [
        122,
        5
      ]
    },
    {
      "id": 168,
      "plugin": "Bogaudio",
      "version": "1.1.33",
      "model": "Bogaudio-UMix",
      "params": [],
      "leftModuleId": 151,
      "rightModuleId": 154,
      "data": {
        "clipping_mode": 0,
        "input_gain_db": 0.0,
        "sum": true
      },
      "pos": [
        157,
        5
      ]
    },
    {
      "id": 163,
      "plugin": "Valley",
      "version": "1.0.1",
      "model": "Plateau",
      "params": [
        {
          "id": 0,
          "value": 1.0
        },
        {
          "id": 1,
          "value": 1.0
        },
        {
          "id": 2,
          "value": 0.0
        },
        {
          "id": 3,
          "value": 10.0
        },
        {
          "id": 4,
          "value": 10.0
        },
        {
          "id": 5,
          "value": 0.5
        },
        {
          "id": 6,
          "value": 10.0
        },
        {
          "id": 7,
          "value": 0.549950004
        },
        {
          "id": 8,
          "value": 10.0
        },
        {
          "id": 9,
          "value": 10.0
        },
        {
          "id": 10,
          "value": 0.0
        },
        {
          "id": 11,
          "value": 0.5
        },
        {
          "id": 12,
          "value": 0.5
        },
        {
          "id": 13,
          "value": 0.0
        },
        {
          "id": 14,
          "value": 0.0
        },
        {
          "id": 15,
          "value": 0.0
        },
        {
          "id": 16,
          "value": 0.0
        },
        {
          "id": 17,
          "value": -1.0
        },
        {
          "id": 18,
          "value": 0.108999737
        },
        {
          "id": 19,
          "value": 0.0
        },
        {
          "id": 20,
          "value": 0.0
        },
        {
          "id": 21,
          "value": 0.0
        },
        {
          "id": 22,
          "value": 0.0
        },
        {
          "id": 23,
          "value": 0.0
        },
        {
          "id": 24,
          "value": 0.0
        },
        {
          "id": 25,
          "value": 0.0
        },
        {
          "id": 26,
          "value": 0.0
        },
        {
          "id": 27,
          "value": 0.0
        },
        {
          "id": 28,
          "value": 0.0
        },
        {
          "id": 29,
          "value": 0.0
        },
        {
          "id": 30,
          "value": 1.0
        }
      ],
      "leftModuleId": 159,
      "rightModuleId": 164,
      "data": {
        "frozen": false,
        "freezeToggle": false,
        "panelStyle": 0,
        "tuned": 0,
        "diffuseInput": 1,
        "preDelayCVSens": 0,
        "inputSensitivity": 0,
        "outputSaturation": 0
      },
      "pos": [
        117,
        3
      ]
    },
    {
      "id": 170,
      "plugin": "Fundamental",
      "version": "1.4.0",
      "model": "Scope",
      "params": [
        {
          "id": 0,
          "value": 0.0
        },
        {
          "id": 1,
          "value": 0.0
        },
        {
          "id": 2,
          "value": 0.0
        },
        {
          "id": 3,
          "value": 0.0
        },
        {
          "id": 4,
          "value": 6.0
        },
        {
          "id": 5,
          "value": 0.0
        },
        {
          "id": 6,
          "value": 0.0
        },
        {
          "id": 7,
          "value": 0.0
        }
      ],
      "rightModuleId": 158,
      "data": {
        "lissajous": 0,
        "external": 0
      },
      "pos": [
        13,
        2
      ]
    },
    {
      "id": 174,
      "plugin": "NYSTHI",
      "version": "1.0.13",
      "model": "DualSignalDelayer",
      "params": [
        {
          "id": 0,
          "value": 0.00449997559
        },
        {
          "id": 1,
          "value": 0.5
        },
        {
          "id": 2,
          "value": 0.0
        },
        {
          "id": 3,
          "value": 0.0
        },
        {
          "id": 4,
          "value": 0.0
        },
        {
          "id": 5,
          "value": 0.0
        },
        {
          "id": 6,
          "value": 0.0
        },
        {
          "id": 7,
          "value": 0.0
        }
      ],
      "rightModuleId": 184,
      "pos": [
        34,
        3
      ]
    },
    {
      "id": 184,
      "plugin": "Bogaudio",
      "version": "1.1.33",
      "model": "Bogaudio-Sums",
      "params": [],
      "leftModuleId": 174,
      "rightModuleId": 185,
      "data": {
        "disableOutputLimit": false
      },
      "pos": [
        36,
        3
      ]
    },
    {
      "id": 185,
      "plugin": "Bogaudio",
      "version": "1.1.33",
      "model": "Bogaudio-Sums",
      "params": [],
      "leftModuleId": 184,
      "data": {
        "disableOutputLimit": false
      },
      "pos": [
        39,
        3
      ]
    },
    {
      "id": 188,
      "plugin": "Fundamental",
      "version": "1.4.0",
      "model": "ADSR",
      "params": [
        {
          "id": 0,
          "value": 0.5
        },
        {
          "id": 1,
          "value": 0.5
        },
        {
          "id": 2,
          "value": 0.5
        },
        {
          "id": 3,
          "value": 0.5
        }
      ],
      "leftModuleId": 190,
      "rightModuleId": 189,
      "pos": [
        94,
        2
      ]
    },
    {
      "id": 189,
      "plugin": "Fundamental",
      "version": "1.4.0",
      "model": "VCA-1",
      "params": [
        {
          "id": 0,
          "value": 1.0
        },
        {
          "id": 1,
          "value": 1.0
        }
      ],
      "leftModuleId": 188,
      "rightModuleId": 191,
      "pos": [
        102,
        2
      ]
    },
    {
      "id": 190,
      "plugin": "AudibleInstruments",
      "version": "1.3.1",
      "model": "Kinks",
      "params": [],
      "rightModuleId": 188,
      "pos": [
        90,
        2
      ]
    },
    {
      "id": 191,
      "plugin": "NYSTHI",
      "version": "1.0.13",
      "model": "DissonantVerb",
      "params": [
        {
          "id": 0,
          "value": 0.89350009
        },
        {
          "id": 1,
          "value": 0.0780000016
        },
        {
          "id": 2,
          "value": 0.691999912
        },
        {
          "id": 3,
          "value": 0.512000084
        },
        {
          "id": 4,
          "value": 0.749000132
        },
        {
          "id": 5,
          "value": 0.5
        },
        {
          "id": 6,
          "value": 0.5
        },
        {
          "id": 7,
          "value": 0.899999976
        },
        {
          "id": 8,
          "value": 0.936750054
        },
        {
          "id": 9,
          "value": 0.670499861
        },
        {
          "id": 10,
          "value": 1.0
        },
        {
          "id": 11,
          "value": 1.0
        },
        {
          "id": 12,
          "value": 0.0
        }
      ],
      "leftModuleId": 189,
      "rightModuleId": 193,
      "pos": [
        105,
        2
      ]
    },
    {
      "id": 193,
      "plugin": "Fundamental",
      "version": "1.4.0",
      "model": "VCMixer",
      "params": [
        {
          "id": 0,
          "value": 1.0
        },
        {
          "id": 1,
          "value": 0.0
        },
        {
          "id": 2,
          "value": 1.0
        },
        {
          "id": 3,
          "value": 1.0
        },
        {
          "id": 4,
          "value": 1.0
        }
      ],
      "leftModuleId": 191,
      "rightModuleId": 194,
      "pos": [
        112,
        2
      ]
    },
    {
      "id": 194,
      "plugin": "VultModulesFree",
      "version": "1.10.1",
      "model": "Debriatus",
      "params": [
        {
          "id": 0,
          "value": 0.774000049
        },
        {
          "id": 1,
          "value": 0.940500021
        },
        {
          "id": 2,
          "value": 1.0
        },
        {
          "id": 3,
          "value": 0.808499992
        },
        {
          "id": 4,
          "value": 0.0
        },
        {
          "id": 5,
          "value": 0.0
        },
        {
          "id": 6,
          "value": 0.0
        },
        {
          "id": 7,
          "value": 0.0
        }
      ],
      "leftModuleId": 193,
      "rightModuleId": 195,
      "pos": [
        122,
        2
      ]
    },
    {
      "id": 195,
      "plugin": "Valley",
      "version": "1.0.1",
      "model": "Plateau",
      "params": [
        {
          "id": 0,
          "value": 1.0
        },
        {
          "id": 1,
          "value": 0.5
        },
        {
          "id": 2,
          "value": 0.0
        },
        {
          "id": 3,
          "value": 10.0
        },
        {
          "id": 4,
          "value": 10.0
        },
        {
          "id": 5,
          "value": 0.5
        },
        {
          "id": 6,
          "value": 10.0
        },
        {
          "id": 7,
          "value": 0.549950004
        },
        {
          "id": 8,
          "value": 10.0
        },
        {
          "id": 9,
          "value": 10.0
        },
        {
          "id": 10,
          "value": 0.0
        },
        {
          "id": 11,
          "value": 0.5
        },
        {
          "id": 12,
          "value": 0.5
        },
        {
          "id": 13,
          "value": 0.0
        },
        {
          "id": 14,
          "value": 0.0
        },
        {
          "id": 15,
          "value": 0.0
        },
        {
          "id": 16,
          "value": 0.0
        },
        {
          "id": 17,
          "value": 0.0
        },
        {
          "id": 18,
          "value": 0.0
        },
        {
          "id": 19,
          "value": 0.0
        },
        {
          "id": 20,
          "value": 0.0
        },
        {
          "id": 21,
          "value": 0.0
        },
        {
          "id": 22,
          "value": 0.0
        },
        {
          "id": 23,
          "value": 0.0
        },
        {
          "id": 24,
          "value": 0.0
        },
        {
          "id": 25,
          "value": 0.0
        },
        {
          "id": 26,
          "value": 0.0
        },
        {
          "id": 27,
          "value": 0.0
        },
        {
          "id": 28,
          "value": 0.0
        },
        {
          "id": 29,
          "value": 0.0
        },
        {
          "id": 30,
          "value": 1.0
        }
      ],
      "leftModuleId": 194,
      "rightModuleId": 196,
      "data": {
        "frozen": false,
        "freezeToggle": false,
        "panelStyle": 0,
        "tuned": 0,
        "diffuseInput": 1,
        "preDelayCVSens": 0,
        "inputSensitivity": 0,
        "outputSaturation": 0
      },
      "pos": [
        132,
        2
      ]
    },
    {
      "id": 196,
      "plugin": "Fundamental",
      "version": "1.4.0",
      "model": "VCF",
      "params": [
        {
          "id": 0,
          "value": 1.0
        },
        {
          "id": 1,
          "value": 0.5
        },
        {
          "id": 2,
          "value": 0.0
        },
        {
          "id": 3,
          "value": 0.0
        },
        {
          "id": 4,
          "value": 0.0
        }
      ],
      "leftModuleId": 195,
      "rightModuleId": 200,
      "pos": [
        144,
        2
      ]
    },
    {
      "id": 198,
      "plugin": "Fundamental",
      "version": "1.4.0",
      "model": "Mutes",
      "params": [
        {
          "id": 0,
          "value": 0.0
        },
        {
          "id": 1,
          "value": 0.0
        },
        {
          "id": 2,
          "value": 0.0
        },
        {
          "id": 3,
          "value": 0.0
        },
        {
          "id": 4,
          "value": 0.0
        },
        {
          "id": 5,
          "value": 0.0
        },
        {
          "id": 6,
          "value": 0.0
        },
        {
          "id": 7,
          "value": 0.0
        },
        {
          "id": 8,
          "value": 0.0
        },
        {
          "id": 9,
          "value": 0.0
        }
      ],
      "leftModuleId": 158,
      "rightModuleId": 199,
      "data": {
        "states": [
          true,
          true,
          true,
          true,
          true,
          true,
          true,
          true,
          true,
          true
        ]
      },
      "pos": [
        39,
        2
      ]
    },
    {
      "id": 199,
      "plugin": "Core",
      "version": "1.1.6",
      "model": "Notes",
      "params": [],
      "leftModuleId": 198,
      "text": " 1 the orginal midi input\n \n\n2 the rescaled input\n\n\n 3  dirac when input changes\n\n4 negatif oof the midi\n\n5 inactive if 0 persones\n   ",
      "pos": [
        47,
        2
      ]
    },
    {
      "id": 200,
      "plugin": "NYSTHI",
      "version": "1.0.13",
      "model": "mix4",
      "params": [
        {
          "id": 0,
          "value": 0.0
        },
        {
          "id": 1,
          "value": 0.0
        },
        {
          "id": 2,
          "value": 0.0
        },
        {
          "id": 3,
          "value": 0.0
        },
        {
          "id": 4,
          "value": 0.0
        },
        {
          "id": 5,
          "value": 0.0
        },
        {
          "id": 6,
          "value": 0.0
        },
        {
          "id": 7,
          "value": 0.0
        },
        {
          "id": 8,
          "value": 0.0
        },
        {
          "id": 9,
          "value": 0.0
        },
        {
          "id": 10,
          "value": 0.0
        },
        {
          "id": 11,
          "value": 0.100000001
        },
        {
          "id": 12,
          "value": 0.0
        },
        {
          "id": 13,
          "value": 0.0
        },
        {
          "id": 14,
          "value": 0.0
        },
        {
          "id": 15,
          "value": 0.0
        },
        {
          "id": 16,
          "value": 0.0
        },
        {
          "id": 17,
          "value": 0.0
        },
        {
          "id": 18,
          "value": 0.0
        },
        {
          "id": 19,
          "value": 0.0
        },
        {
          "id": 20,
          "value": 0.0
        },
        {
          "id": 21,
          "value": 0.0
        },
        {
          "id": 22,
          "value": 0.0
        },
        {
          "id": 23,
          "value": 0.0
        }
      ],
      "leftModuleId": 196,
      "data": {
        "m_channels": [
          1.31586647,
          0.5,
          true,
          false,
          1.03463304,
          0.5,
          true,
          true,
          0.320229203,
          0.5,
          true,
          false,
          0.760461569,
          0.5,
          false,
          false
        ],
        "m_master_volume": 0.658851624,
        "m_master_mute_trig": false,
        "m_low_power": false,
        "m_cvcompatible": false,
        "m_show_post_out": false,
        "m_post_outputs_unaffected_by_solo_mode": false,
        "m_attenuation": 1.0,
        "m_limiting_mode": 0,
        "m_poly_out": 4
      },
      "pos": [
        152,
        2
      ]
    },
    {
      "id": 201,
      "plugin": "ImpromptuModular",
      "version": "1.1.8",
      "model": "Clocked",
      "params": [
        {
          "id": 0,
          "value": 30.0
        },
        {
          "id": 1,
          "value": 0.0
        },
        {
          "id": 2,
          "value": 4.0
        },
        {
          "id": 3,
          "value": -5.0
        },
        {
          "id": 4,
          "value": 0.0
        },
        {
          "id": 5,
          "value": 0.0
        },
        {
          "id": 6,
          "value": 0.0
        },
        {
          "id": 7,
          "value": 0.0
        },
        {
          "id": 8,
          "value": 0.5
        },
        {
          "id": 9,
          "value": 0.5
        },
        {
          "id": 10,
          "value": 0.5
        },
        {
          "id": 11,
          "value": 0.5
        },
        {
          "id": 12,
          "value": 0.0
        },
        {
          "id": 13,
          "value": 0.0
        },
        {
          "id": 14,
          "value": 0.0
        },
        {
          "id": 15,
          "value": 0.0
        },
        {
          "id": 16,
          "value": 0.0
        },
        {
          "id": 17,
          "value": 0.0
        },
        {
          "id": 18,
          "value": 0.0
        },
        {
          "id": 19,
          "value": 0.0
        }
      ],
      "data": {
        "panelTheme": 0,
        "running": true,
        "displayDelayNoteMode": true,
        "bpmDetectionMode": false,
        "resetOnStartStop": 0,
        "ppqn": 4,
        "resetClockOutputsHigh": true,
        "momentaryRunInput": true,
        "clockMaster": false
      },
      "pos": [
        40,
        1
      ]
    },
    {
      "id": 204,
      "plugin": "NYSTHI",
      "version": "1.0.13",
      "model": "ScaleOffset",
      "params": [
        {
          "id": 0,
          "value": 10.0
        },
        {
          "id": 1,
          "value": 2.0
        },
        {
          "id": 2,
          "value": -20.2000065
        },
        {
          "id": 3,
          "value": 2.0
        }
      ],
      "data": {
        "m_snapped": false
      },
      "pos": [
        22,
        1
      ]
    },
    {
      "id": 205,
      "plugin": "Fundamental",
      "version": "1.4.0",
      "model": "VCO",
      "params": [
        {
          "id": 0,
          "value": 1.0
        },
        {
          "id": 1,
          "value": 1.0
        },
        {
          "id": 2,
          "value": 10.2443419
        },
        {
          "id": 3,
          "value": -0.185999781
        },
        {
          "id": 4,
          "value": 0.327000111
        },
        {
          "id": 5,
          "value": 0.5
        },
        {
          "id": 6,
          "value": 0.0
        }
      ],
      "leftModuleId": 207,
      "rightModuleId": 210,
      "pos": [
        114,
        1
      ]
    },
    {
      "id": 206,
      "plugin": "AudibleInstruments",
      "version": "1.3.1",
      "model": "Kinks",
      "params": [],
      "leftModuleId": 217,
      "rightModuleId": 208,
      "pos": [
        89,
        1
      ]
    },
    {
      "id": 207,
      "plugin": "Fundamental",
      "version": "1.4.0",
      "model": "Quantizer",
      "params": [],
      "leftModuleId": 209,
      "rightModuleId": 205,
      "data": {
        "enabledNotes": [
          true,
          false,
          true,
          true,
          false,
          true,
          false,
          true,
          true,
          false,
          true,
          false
        ]
      },
      "pos": [
        111,
        1
      ]
    },
    {
      "id": 208,
      "plugin": "Befaco",
      "version": "1.0.1",
      "model": "DualAtenuverter",
      "params": [
        {
          "id": 0,
          "value": 0.165000036
        },
        {
          "id": 1,
          "value": 1.86000013
        },
        {
          "id": 2,
          "value": 0.0
        },
        {
          "id": 3,
          "value": 0.0
        }
      ],
      "leftModuleId": 206,
      "rightModuleId": 209,
      "pos": [
        93,
        1
      ]
    },
    {
      "id": 209,
      "plugin": "Fundamental",
      "version": "1.4.0",
      "model": "Scope",
      "params": [
        {
          "id": 0,
          "value": 0.0
        },
        {
          "id": 1,
          "value": 0.0
        },
        {
          "id": 2,
          "value": 0.0
        },
        {
          "id": 3,
          "value": 0.0
        },
        {
          "id": 4,
          "value": 7.07000065
        },
        {
          "id": 5,
          "value": 0.0
        },
        {
          "id": 6,
          "value": 0.0
        },
        {
          "id": 7,
          "value": 0.0
        }
      ],
      "leftModuleId": 208,
      "rightModuleId": 207,
      "data": {
        "lissajous": 0,
        "external": 0
      },
      "pos": [
        98,
        1
      ]
    },
    {
      "id": 210,
      "plugin": "Fundamental",
      "version": "1.4.0",
      "model": "ADSR",
      "params": [
        {
          "id": 0,
          "value": 0.153499931
        },
        {
          "id": 1,
          "value": 0.0275000259
        },
        {
          "id": 2,
          "value": 0.391000003
        },
        {
          "id": 3,
          "value": 0.402500063
        }
      ],
      "leftModuleId": 205,
      "rightModuleId": 212,
      "pos": [
        124,
        1
      ]
    },
    {
      "id": 211,
      "plugin": "Fundamental",
      "version": "1.4.0",
      "model": "VCF",
      "params": [
        {
          "id": 0,
          "value": 0.93650049
        },
        {
          "id": 1,
          "value": 0.5
        },
        {
          "id": 2,
          "value": 0.0
        },
        {
          "id": 3,
          "value": 0.522999763
        },
        {
          "id": 4,
          "value": 0.0
        }
      ],
      "leftModuleId": 218,
      "pos": [
        155,
        1
      ]
    },
    {
      "id": 212,
      "plugin": "Fundamental",
      "version": "1.4.0",
      "model": "VCA-1",
      "params": [
        {
          "id": 0,
          "value": 1.0
        },
        {
          "id": 1,
          "value": 1.0
        }
      ],
      "leftModuleId": 210,
      "rightModuleId": 219,
      "pos": [
        132,
        1
      ]
    },
    {
      "id": 214,
      "plugin": "Fundamental",
      "version": "1.4.0",
      "model": "Scope",
      "params": [
        {
          "id": 0,
          "value": 0.0
        },
        {
          "id": 1,
          "value": 0.0
        },
        {
          "id": 2,
          "value": 0.0
        },
        {
          "id": 3,
          "value": 0.0
        },
        {
          "id": 4,
          "value": 6.0
        },
        {
          "id": 5,
          "value": 0.0
        },
        {
          "id": 6,
          "value": 0.0
        },
        {
          "id": 7,
          "value": 0.0
        }
      ],
      "rightModuleId": 217,
      "data": {
        "lissajous": 0,
        "external": 0
      },
      "pos": [
        66,
        1
      ]
    },
    {
      "id": 217,
      "plugin": "Fundamental",
      "version": "1.4.0",
      "model": "LFO",
      "params": [
        {
          "id": 0,
          "value": 1.0
        },
        {
          "id": 1,
          "value": 1.0
        },
        {
          "id": 2,
          "value": -0.485000491
        },
        {
          "id": 3,
          "value": 0.0
        },
        {
          "id": 4,
          "value": 0.0
        },
        {
          "id": 5,
          "value": 0.5
        },
        {
          "id": 6,
          "value": 0.0
        }
      ],
      "leftModuleId": 214,
      "rightModuleId": 206,
      "pos": [
        79,
        1
      ]
    },
    {
      "id": 218,
      "plugin": "Valley",
      "version": "1.0.1",
      "model": "Plateau",
      "params": [
        {
          "id": 0,
          "value": 1.0
        },
        {
          "id": 1,
          "value": 0.5
        },
        {
          "id": 2,
          "value": 0.0
        },
        {
          "id": 3,
          "value": 10.0
        },
        {
          "id": 4,
          "value": 10.0
        },
        {
          "id": 5,
          "value": 0.5
        },
        {
          "id": 6,
          "value": 10.0
        },
        {
          "id": 7,
          "value": 0.549950004
        },
        {
          "id": 8,
          "value": 10.0
        },
        {
          "id": 9,
          "value": 10.0
        },
        {
          "id": 10,
          "value": 0.0
        },
        {
          "id": 11,
          "value": 0.5
        },
        {
          "id": 12,
          "value": 0.5
        },
        {
          "id": 13,
          "value": 0.0
        },
        {
          "id": 14,
          "value": 0.0
        },
        {
          "id": 15,
          "value": 0.0
        },
        {
          "id": 16,
          "value": 0.0
        },
        {
          "id": 17,
          "value": 0.0
        },
        {
          "id": 18,
          "value": 0.0
        },
        {
          "id": 19,
          "value": 0.0
        },
        {
          "id": 20,
          "value": 0.0
        },
        {
          "id": 21,
          "value": 0.0
        },
        {
          "id": 22,
          "value": 0.0
        },
        {
          "id": 23,
          "value": 0.0
        },
        {
          "id": 24,
          "value": 0.0
        },
        {
          "id": 25,
          "value": 0.0
        },
        {
          "id": 26,
          "value": 0.0
        },
        {
          "id": 27,
          "value": 0.0
        },
        {
          "id": 28,
          "value": 0.0
        },
        {
          "id": 29,
          "value": 0.0
        },
        {
          "id": 30,
          "value": 1.0
        }
      ],
      "leftModuleId": 219,
      "rightModuleId": 211,
      "data": {
        "frozen": false,
        "freezeToggle": false,
        "panelStyle": 0,
        "tuned": 0,
        "diffuseInput": 1,
        "preDelayCVSens": 0,
        "inputSensitivity": 0,
        "outputSaturation": 0
      },
      "pos": [
        143,
        1
      ]
    },
    {
      "id": 219,
      "plugin": "Fundamental",
      "version": "1.4.0",
      "model": "Delay",
      "params": [
        {
          "id": 0,
          "value": 0.411499947
        },
        {
          "id": 1,
          "value": 0.682999969
        },
        {
          "id": 2,
          "value": 0.5
        },
        {
          "id": 3,
          "value": 0.693000257
        }
      ],
      "leftModuleId": 212,
      "rightModuleId": 218,
      "pos": [
        135,
        1
      ]
    },
    {
      "id": 220,
      "plugin": "NYSTHI",
      "version": "1.0.13",
      "model": "ScaleOffset",
      "params": [
        {
          "id": 0,
          "value": -28.0000019
        },
        {
          "id": 1,
          "value": 1.0
        },
        {
          "id": 2,
          "value": 10.0
        },
        {
          "id": 3,
          "value": 1.0
        }
      ],
      "data": {
        "m_snapped": false
      },
      "pos": [
        18,
        4
      ]
    },
    {
      "id": 225,
      "plugin": "Fundamental",
      "version": "1.4.0",
      "model": "Scope",
      "params": [
        {
          "id": 0,
          "value": 0.0
        },
        {
          "id": 1,
          "value": 0.0
        },
        {
          "id": 2,
          "value": 0.0
        },
        {
          "id": 3,
          "value": 0.0
        },
        {
          "id": 4,
          "value": 6.0
        },
        {
          "id": 5,
          "value": 0.0
        },
        {
          "id": 6,
          "value": 0.0
        },
        {
          "id": 7,
          "value": 0.0
        }
      ],
      "leftModuleId": 228,
      "data": {
        "lissajous": 0,
        "external": 0
      },
      "pos": [
        46,
        4
      ]
    },
    {
      "id": 228,
      "plugin": "Bogaudio",
      "version": "1.1.33",
      "model": "Bogaudio-Cmp",
      "params": [
        {
          "id": 0,
          "value": 0.0
        },
        {
          "id": 1,
          "value": 0.0510000139
        },
        {
          "id": 2,
          "value": 0.5
        },
        {
          "id": 3,
          "value": 0.100000001
        },
        {
          "id": 4,
          "value": 0.0
        }
      ],
      "rightModuleId": 225,
      "pos": [
        40,
        4
      ]
    },
    {
      "id": 229,
      "plugin": "Fundamental",
      "version": "1.4.0",
      "model": "Scope",
      "params": [
        {
          "id": 0,
          "value": 0.0
        },
        {
          "id": 1,
          "value": 0.0
        },
        {
          "id": 2,
          "value": 0.0
        },
        {
          "id": 3,
          "value": 0.0
        },
        {
          "id": 4,
          "value": 8.35499954
        },
        {
          "id": 5,
          "value": 0.0
        },
        {
          "id": 6,
          "value": 0.0
        },
        {
          "id": 7,
          "value": 0.0
        }
      ],
      "data": {
        "lissajous": 0,
        "external": 0
      },
      "pos": [
        76,
        2
      ]
    },
    {
      "id": 230,
      "plugin": "Fundamental",
      "version": "1.4.0",
      "model": "Scope",
      "params": [
        {
          "id": 0,
          "value": 4.0
        },
        {
          "id": 1,
          "value": 0.0
        },
        {
          "id": 2,
          "value": 0.0
        },
        {
          "id": 3,
          "value": 0.0
        },
        {
          "id": 4,
          "value": 9.73500061
        },
        {
          "id": 5,
          "value": 0.0
        },
        {
          "id": 6,
          "value": 0.0
        },
        {
          "id": 7,
          "value": 0.0
        }
      ],
      "leftModuleId": 150,
      "data": {
        "lissajous": 0,
        "external": 0
      },
      "pos": [
        176,
        5
      ]
    },
    {
      "id": 232,
      "plugin": "Fundamental",
      "version": "1.4.0",
      "model": "Scope",
      "params": [
        {
          "id": 0,
          "value": 0.0
        },
        {
          "id": 1,
          "value": 0.0
        },
        {
          "id": 2,
          "value": 0.0
        },
        {
          "id": 3,
          "value": 0.0
        },
        {
          "id": 4,
          "value": 7.31999636
        },
        {
          "id": 5,
          "value": 0.0
        },
        {
          "id": 6,
          "value": 0.0
        },
        {
          "id": 7,
          "value": 0.0
        }
      ],
      "data": {
        "lissajous": 0,
        "external": 0
      },
      "pos": [
        24,
        0
      ]
    },
    {
      "id": 238,
      "plugin": "Fundamental",
      "version": "1.4.0",
      "model": "VCF",
      "params": [
        {
          "id": 0,
          "value": 0.0
        },
        {
          "id": 1,
          "value": 0.0
        },
        {
          "id": 2,
          "value": 0.0
        },
        {
          "id": 3,
          "value": 0.0
        },
        {
          "id": 4,
          "value": 0.0
        }
      ],
      "pos": [
        31,
        1
      ]
    },
    {
      "id": 239,
      "plugin": "NYSTHI",
      "version": "1.0.13",
      "model": "ScaleOffset",
      "params": [
        {
          "id": 0,
          "value": -40.0
        },
        {
          "id": 1,
          "value": 2.0
        },
        {
          "id": 2,
          "value": -100.0
        },
        {
          "id": 3,
          "value": 2.0
        }
      ],
      "data": {
        "m_snapped": false
      },
      "pos": [
        14,
        0
      ]
    }
  ],
  "cables": [
    {
      "id": 600,
      "outputModuleId": 148,
      "outputId": 4,
      "inputModuleId": 145,
      "inputId": 1,
      "color": "#0c8e15"
    },
    {
      "id": 601,
      "outputModuleId": 150,
      "outputId": 0,
      "inputModuleId": 149,
      "inputId": 0,
      "color": "#c9b70e"
    },
    {
      "id": 602,
      "outputModuleId": 150,
      "outputId": 1,
      "inputModuleId": 149,
      "inputId": 17,
      "color": "#0c8e15"
    },
    {
      "id": 603,
      "outputModuleId": 147,
      "outputId": 0,
      "inputModuleId": 150,
      "inputId": 0,
      "color": "#c91847"
    },
    {
      "id": 604,
      "outputModuleId": 147,
      "outputId": 0,
      "inputModuleId": 150,
      "inputId": 5,
      "color": "#0986ad"
    },
    {
      "id": 605,
      "outputModuleId": 145,
      "outputId": 0,
      "inputModuleId": 150,
      "inputId": 1,
      "color": "#c9b70e"
    },
    {
      "id": 606,
      "outputModuleId": 145,
      "outputId": 0,
      "inputModuleId": 150,
      "inputId": 6,
      "color": "#0c8e15"
    },
    {
      "id": 607,
      "outputModuleId": 148,
      "outputId": 10,
      "inputModuleId": 147,
      "inputId": 0,
      "color": "#c91847"
    },
    {
      "id": 611,
      "outputModuleId": 148,
      "outputId": 5,
      "inputModuleId": 152,
      "inputId": 0,
      "color": "#c91847"
    },
    {
      "id": 612,
      "outputModuleId": 148,
      "outputId": 7,
      "inputModuleId": 152,
      "inputId": 1,
      "color": "#0986ad"
    },
    {
      "id": 613,
      "outputModuleId": 148,
      "outputId": 9,
      "inputModuleId": 152,
      "inputId": 2,
      "color": "#c9b70e"
    },
    {
      "id": 614,
      "outputModuleId": 152,
      "outputId": 0,
      "inputModuleId": 151,
      "inputId": 1,
      "color": "#0c8e15"
    },
    {
      "id": 617,
      "outputModuleId": 148,
      "outputId": 11,
      "inputModuleId": 152,
      "inputId": 3,
      "color": "#c9b70e"
    },
    {
      "id": 618,
      "outputModuleId": 151,
      "outputId": 0,
      "inputModuleId": 154,
      "inputId": 4,
      "color": "#c91847"
    },
    {
      "id": 619,
      "outputModuleId": 154,
      "outputId": 0,
      "inputModuleId": 150,
      "inputId": 3,
      "color": "#0986ad"
    },
    {
      "id": 620,
      "outputModuleId": 154,
      "outputId": 0,
      "inputModuleId": 150,
      "inputId": 8,
      "color": "#c9b70e"
    },
    {
      "id": 629,
      "outputModuleId": 148,
      "outputId": 1,
      "inputModuleId": 160,
      "inputId": 0,
      "color": "#c91847"
    },
    {
      "id": 633,
      "outputModuleId": 161,
      "outputId": 0,
      "inputModuleId": 159,
      "inputId": 0,
      "color": "#c91847"
    },
    {
      "id": 623,
      "outputModuleId": 5,
      "outputId": 2,
      "inputModuleId": 157,
      "inputId": 2,
      "color": "#0986ad"
    },
    {
      "id": 634,
      "outputModuleId": 157,
      "outputId": 1,
      "inputModuleId": 157,
      "inputId": 0,
      "color": "#0986ad"
    },
    {
      "id": 636,
      "outputModuleId": 162,
      "outputId": 1,
      "inputModuleId": 149,
      "inputId": 18,
      "color": "#0c8e15"
    },
    {
      "id": 637,
      "outputModuleId": 162,
      "outputId": 0,
      "inputModuleId": 149,
      "inputId": 1,
      "color": "#c91847"
    },
    {
      "id": 639,
      "outputModuleId": 159,
      "outputId": 1,
      "inputModuleId": 162,
      "inputId": 6,
      "color": "#0c8e15"
    },
    {
      "id": 640,
      "outputModuleId": 159,
      "outputId": 1,
      "inputModuleId": 162,
      "inputId": 1,
      "color": "#c91847"
    },
    {
      "id": 644,
      "outputModuleId": 164,
      "outputId": 0,
      "inputModuleId": 162,
      "inputId": 11,
      "color": "#c91847"
    },
    {
      "id": 647,
      "outputModuleId": 148,
      "outputId": 1,
      "inputModuleId": 165,
      "inputId": 0,
      "color": "#0c8e15"
    },
    {
      "id": 648,
      "outputModuleId": 165,
      "outputId": 0,
      "inputModuleId": 160,
      "inputId": 1,
      "color": "#c91847"
    },
    {
      "id": 650,
      "outputModuleId": 165,
      "outputId": 1,
      "inputModuleId": 165,
      "inputId": 1,
      "color": "#0c8e15"
    },
    {
      "id": 652,
      "outputModuleId": 165,
      "outputId": 0,
      "inputModuleId": 161,
      "inputId": 0,
      "color": "#0986ad"
    },
    {
      "id": 654,
      "outputModuleId": 148,
      "outputId": 6,
      "inputModuleId": 167,
      "inputId": 0,
      "color": "#c91847"
    },
    {
      "id": 655,
      "outputModuleId": 148,
      "outputId": 8,
      "inputModuleId": 167,
      "inputId": 1,
      "color": "#0986ad"
    },
    {
      "id": 656,
      "outputModuleId": 148,
      "outputId": 10,
      "inputModuleId": 167,
      "inputId": 2,
      "color": "#c9b70e"
    },
    {
      "id": 657,
      "outputModuleId": 167,
      "outputId": 0,
      "inputModuleId": 166,
      "inputId": 1,
      "color": "#0c8e15"
    },
    {
      "id": 643,
      "outputModuleId": 164,
      "outputId": 0,
      "inputModuleId": 163,
      "inputId": 3,
      "color": "#0c8e15"
    },
    {
      "id": 645,
      "outputModuleId": 159,
      "outputId": 1,
      "inputModuleId": 163,
      "inputId": 1,
      "color": "#0986ad"
    },
    {
      "id": 646,
      "outputModuleId": 159,
      "outputId": 1,
      "inputModuleId": 163,
      "inputId": 0,
      "color": "#c9b70e"
    },
    {
      "id": 635,
      "outputModuleId": 163,
      "outputId": 1,
      "inputModuleId": 162,
      "inputId": 5,
      "color": "#c9b70e"
    },
    {
      "id": 638,
      "outputModuleId": 163,
      "outputId": 0,
      "inputModuleId": 162,
      "inputId": 0,
      "color": "#c9b70e"
    },
    {
      "id": 658,
      "outputModuleId": 166,
      "outputId": 0,
      "inputModuleId": 168,
      "inputId": 1,
      "color": "#0c8e15"
    },
    {
      "id": 659,
      "outputModuleId": 168,
      "outputId": 0,
      "inputModuleId": 150,
      "inputId": 2,
      "color": "#c91847"
    },
    {
      "id": 660,
      "outputModuleId": 168,
      "outputId": 0,
      "inputModuleId": 150,
      "inputId": 7,
      "color": "#0986ad"
    },
    {
      "id": 653,
      "outputModuleId": 164,
      "outputId": 0,
      "inputModuleId": 165,
      "inputId": 3,
      "color": "#0c8e15"
    },
    {
      "id": 625,
      "outputModuleId": 5,
      "outputId": 2,
      "inputModuleId": 158,
      "inputId": 0,
      "color": "#c91847"
    },
    {
      "id": 663,
      "outputModuleId": 5,
      "outputId": 2,
      "inputModuleId": 174,
      "inputId": 0,
      "color": "#c91847"
    },
    {
      "id": 662,
      "outputModuleId": 5,
      "outputId": 2,
      "inputModuleId": 170,
      "inputId": 0,
      "color": "#0c8e15"
    },
    {
      "id": 677,
      "outputModuleId": 174,
      "outputId": 0,
      "inputModuleId": 184,
      "inputId": 1,
      "color": "#0c8e15"
    },
    {
      "id": 678,
      "outputModuleId": 5,
      "outputId": 2,
      "inputModuleId": 184,
      "inputId": 0,
      "color": "#c91847"
    },
    {
      "id": 680,
      "outputModuleId": 184,
      "outputId": 1,
      "inputModuleId": 185,
      "inputId": 2,
      "color": "#c9b70e"
    },
    {
      "id": 681,
      "outputModuleId": 185,
      "outputId": 4,
      "inputModuleId": 185,
      "inputId": 1,
      "color": "#0c8e15"
    },
    {
      "id": 682,
      "outputModuleId": 184,
      "outputId": 1,
      "inputModuleId": 185,
      "inputId": 0,
      "color": "#c91847"
    },
    {
      "id": 683,
      "outputModuleId": 185,
      "outputId": 2,
      "inputModuleId": 170,
      "inputId": 1,
      "color": "#c9b70e"
    },
    {
      "id": 689,
      "outputModuleId": 188,
      "outputId": 0,
      "inputModuleId": 189,
      "inputId": 0,
      "color": "#c91847"
    },
    {
      "id": 695,
      "outputModuleId": 189,
      "outputId": 0,
      "inputModuleId": 191,
      "inputId": 0,
      "color": "#0c8e15"
    },
    {
      "id": 696,
      "outputModuleId": 189,
      "outputId": 0,
      "inputModuleId": 191,
      "inputId": 1,
      "color": "#c91847"
    },
    {
      "id": 699,
      "outputModuleId": 191,
      "outputId": 0,
      "inputModuleId": 193,
      "inputId": 2,
      "color": "#0c8e15"
    },
    {
      "id": 700,
      "outputModuleId": 191,
      "outputId": 1,
      "inputModuleId": 193,
      "inputId": 3,
      "color": "#c91847"
    },
    {
      "id": 701,
      "outputModuleId": 189,
      "outputId": 0,
      "inputModuleId": 193,
      "inputId": 1,
      "color": "#0986ad"
    },
    {
      "id": 705,
      "outputModuleId": 193,
      "outputId": 0,
      "inputModuleId": 194,
      "inputId": 0,
      "color": "#0986ad"
    },
    {
      "id": 706,
      "outputModuleId": 193,
      "outputId": 0,
      "inputModuleId": 194,
      "inputId": 5,
      "color": "#c9b70e"
    },
    {
      "id": 709,
      "outputModuleId": 194,
      "outputId": 1,
      "inputModuleId": 195,
      "inputId": 0,
      "color": "#0986ad"
    },
    {
      "id": 708,
      "outputModuleId": 194,
      "outputId": 0,
      "inputModuleId": 195,
      "inputId": 1,
      "color": "#c91847"
    },
    {
      "id": 714,
      "outputModuleId": 5,
      "outputId": 2,
      "inputModuleId": 198,
      "inputId": 0,
      "color": "#c9b70e"
    },
    {
      "id": 715,
      "outputModuleId": 185,
      "outputId": 2,
      "inputModuleId": 198,
      "inputId": 2,
      "color": "#0c8e15"
    },
    {
      "id": 717,
      "outputModuleId": 198,
      "outputId": 0,
      "inputModuleId": 165,
      "inputId": 2,
      "color": "#0986ad"
    },
    {
      "id": 718,
      "outputModuleId": 198,
      "outputId": 2,
      "inputModuleId": 188,
      "inputId": 4,
      "color": "#c9b70e"
    },
    {
      "id": 642,
      "outputModuleId": 198,
      "outputId": 1,
      "inputModuleId": 164,
      "inputId": 0,
      "color": "#c9b70e"
    },
    {
      "id": 627,
      "outputModuleId": 198,
      "outputId": 1,
      "inputModuleId": 154,
      "inputId": 0,
      "color": "#c9b70e"
    },
    {
      "id": 626,
      "outputModuleId": 198,
      "outputId": 1,
      "inputModuleId": 154,
      "inputId": 3,
      "color": "#0986ad"
    },
    {
      "id": 719,
      "outputModuleId": 157,
      "outputId": 0,
      "inputModuleId": 198,
      "inputId": 1,
      "color": "#0c8e15"
    },
    {
      "id": 720,
      "outputModuleId": 157,
      "outputId": 0,
      "inputModuleId": 158,
      "inputId": 1,
      "color": "#c91847"
    },
    {
      "id": 712,
      "outputModuleId": 190,
      "outputId": 5,
      "inputModuleId": 189,
      "inputId": 1,
      "color": "#c91847"
    },
    {
      "id": 721,
      "outputModuleId": 195,
      "outputId": 0,
      "inputModuleId": 196,
      "inputId": 3,
      "color": "#c9b70e"
    },
    {
      "id": 710,
      "outputModuleId": 196,
      "outputId": 0,
      "inputModuleId": 200,
      "inputId": 2,
      "color": "#c9b70e"
    },
    {
      "id": 711,
      "outputModuleId": 196,
      "outputId": 0,
      "inputModuleId": 200,
      "inputId": 7,
      "color": "#0c8e15"
    },
    {
      "id": 697,
      "outputModuleId": 191,
      "outputId": 1,
      "inputModuleId": 200,
      "inputId": 6,
      "color": "#0986ad"
    },
    {
      "id": 722,
      "outputModuleId": 191,
      "outputId": 0,
      "inputModuleId": 200,
      "inputId": 1,
      "color": "#0986ad"
    },
    {
      "id": 691,
      "outputModuleId": 189,
      "outputId": 0,
      "inputModuleId": 200,
      "inputId": 0,
      "color": "#c9b70e"
    },
    {
      "id": 692,
      "outputModuleId": 189,
      "outputId": 0,
      "inputModuleId": 200,
      "inputId": 5,
      "color": "#0c8e15"
    },
    {
      "id": 723,
      "outputModuleId": 200,
      "outputId": 1,
      "inputModuleId": 149,
      "inputId": 19,
      "color": "#0c8e15"
    },
    {
      "id": 724,
      "outputModuleId": 200,
      "outputId": 0,
      "inputModuleId": 149,
      "inputId": 2,
      "color": "#c91847"
    },
    {
      "id": 727,
      "outputModuleId": 201,
      "outputId": 1,
      "inputModuleId": 148,
      "inputId": 1,
      "color": "#c9b70e"
    },
    {
      "id": 725,
      "outputModuleId": 198,
      "outputId": 1,
      "inputModuleId": 204,
      "inputId": 2,
      "color": "#c9b70e"
    },
    {
      "id": 729,
      "outputModuleId": 204,
      "outputId": 1,
      "inputModuleId": 204,
      "inputId": 0,
      "color": "#c91847"
    },
    {
      "id": 733,
      "outputModuleId": 207,
      "outputId": 0,
      "inputModuleId": 205,
      "inputId": 0,
      "color": "#c91847"
    },
    {
      "id": 734,
      "outputModuleId": 206,
      "outputId": 6,
      "inputModuleId": 209,
      "inputId": 0,
      "color": "#0986ad"
    },
    {
      "id": 736,
      "outputModuleId": 208,
      "outputId": 0,
      "inputModuleId": 209,
      "inputId": 1,
      "color": "#0c8e15"
    },
    {
      "id": 737,
      "outputModuleId": 208,
      "outputId": 0,
      "inputModuleId": 207,
      "inputId": 0,
      "color": "#c91847"
    },
    {
      "id": 738,
      "outputModuleId": 211,
      "outputId": 0,
      "inputModuleId": 149,
      "inputId": 3,
      "color": "#0986ad"
    },
    {
      "id": 739,
      "outputModuleId": 201,
      "outputId": 2,
      "inputModuleId": 210,
      "inputId": 4,
      "color": "#c9b70e"
    },
    {
      "id": 740,
      "outputModuleId": 210,
      "outputId": 0,
      "inputModuleId": 212,
      "inputId": 0,
      "color": "#c91847"
    },
    {
      "id": 732,
      "outputModuleId": 205,
      "outputId": 3,
      "inputModuleId": 212,
      "inputId": 1,
      "color": "#0c8e15"
    },
    {
      "id": 744,
      "outputModuleId": 206,
      "outputId": 6,
      "inputModuleId": 214,
      "inputId": 0,
      "color": "#c91847"
    },
    {
      "id": 746,
      "outputModuleId": 206,
      "outputId": 6,
      "inputModuleId": 208,
      "inputId": 0,
      "color": "#c9b70e"
    },
    {
      "id": 743,
      "outputModuleId": 201,
      "outputId": 2,
      "inputModuleId": 206,
      "inputId": 4,
      "color": "#0c8e15"
    },
    {
      "id": 748,
      "outputModuleId": 217,
      "outputId": 2,
      "inputModuleId": 214,
      "inputId": 1,
      "color": "#c91847"
    },
    {
      "id": 750,
      "outputModuleId": 201,
      "outputId": 3,
      "inputModuleId": 217,
      "inputId": 2,
      "color": "#c9b70e"
    },
    {
      "id": 749,
      "outputModuleId": 217,
      "outputId": 2,
      "inputModuleId": 206,
      "inputId": 3,
      "color": "#0986ad"
    },
    {
      "id": 752,
      "outputModuleId": 218,
      "outputId": 0,
      "inputModuleId": 211,
      "inputId": 3,
      "color": "#c91847"
    },
    {
      "id": 753,
      "outputModuleId": 219,
      "outputId": 0,
      "inputModuleId": 218,
      "inputId": 1,
      "color": "#c9b70e"
    },
    {
      "id": 754,
      "outputModuleId": 219,
      "outputId": 0,
      "inputModuleId": 218,
      "inputId": 0,
      "color": "#0c8e15"
    },
    {
      "id": 755,
      "outputModuleId": 212,
      "outputId": 0,
      "inputModuleId": 219,
      "inputId": 4,
      "color": "#c91847"
    },
    {
      "id": 757,
      "outputModuleId": 220,
      "outputId": 0,
      "inputModuleId": 198,
      "inputId": 3,
      "color": "#0c8e15"
    },
    {
      "id": 758,
      "outputModuleId": 198,
      "outputId": 3,
      "inputModuleId": 211,
      "inputId": 0,
      "color": "#0986ad"
    },
    {
      "id": 756,
      "outputModuleId": 5,
      "outputId": 2,
      "inputModuleId": 220,
      "inputId": 0,
      "color": "#0986ad"
    },
    {
      "id": 763,
      "outputModuleId": 5,
      "outputId": 2,
      "inputModuleId": 228,
      "inputId": 0,
      "color": "#c91847"
    },
    {
      "id": 765,
      "outputModuleId": 228,
      "outputId": 0,
      "inputModuleId": 198,
      "inputId": 4,
      "color": "#c9b70e"
    },
    {
      "id": 764,
      "outputModuleId": 228,
      "outputId": 0,
      "inputModuleId": 225,
      "inputId": 0,
      "color": "#0986ad"
    },
    {
      "id": 769,
      "outputModuleId": 212,
      "outputId": 0,
      "inputModuleId": 229,
      "inputId": 1,
      "color": "#c9b70e"
    },
    {
      "id": 766,
      "outputModuleId": 198,
      "outputId": 4,
      "inputModuleId": 150,
      "inputId": 30,
      "color": "#0c8e15"
    },
    {
      "id": 615,
      "outputModuleId": 151,
      "outputId": 0,
      "inputModuleId": 168,
      "inputId": 0,
      "color": "#c91847"
    },
    {
      "id": 772,
      "outputModuleId": 150,
      "outputId": 1,
      "inputModuleId": 230,
      "inputId": 1,
      "color": "#c91847"
    },
    {
      "id": 773,
      "outputModuleId": 211,
      "outputId": 0,
      "inputModuleId": 149,
      "inputId": 20,
      "color": "#0986ad"
    },
    {
      "id": 775,
      "outputModuleId": 204,
      "outputId": 0,
      "inputModuleId": 232,
      "inputId": 0,
      "color": "#c9b70e"
    },
    {
      "id": 786,
      "outputModuleId": 204,
      "outputId": 0,
      "inputModuleId": 238,
      "inputId": 3,
      "color": "#c9b70e"
    },
    {
      "id": 787,
      "outputModuleId": 238,
      "outputId": 0,
      "inputModuleId": 232,
      "inputId": 1,
      "color": "#0c8e15"
    },
    {
      "id": 788,
      "outputModuleId": 238,
      "outputId": 0,
      "inputModuleId": 201,
      "inputId": 6,
      "color": "#c91847"
    },
    {
      "id": 789,
      "outputModuleId": 239,
      "outputId": 1,
      "inputModuleId": 238,
      "inputId": 0,
      "color": "#0986ad"
    },
    {
      "id": 790,
      "outputModuleId": 239,
      "outputId": 0,
      "inputModuleId": 239,
      "inputId": 2,
      "color": "#0c8e15"
    },
    {
      "id": 798,
      "outputModuleId": 149,
      "outputId": 0,
      "inputModuleId": 1,
      "inputId": 1,
      "color": "#c91847"
    },
    {
      "id": 799,
      "outputModuleId": 149,
      "outputId": 1,
      "inputModuleId": 1,
      "inputId": 0,
      "color": "#0986ad"
    }
  ]
}